<svg width="14" height="10" viewBox="0 0 14 10" fill="none" xmlns="http://www.w3.org/2000/svg">
<path d="M13.7674 4.27175L13.7668 4.27105L9.93305 0.455837C9.64584 0.170026 9.1813 0.17109 8.89542 0.458332C8.60957 0.745537 8.61067 1.21008 8.89788 1.49592L11.4718 4.0574H0.733696C0.328475 4.0574 0 4.38588 0 4.7911C0 5.19632 0.328475 5.52479 0.733696 5.52479H11.4718L8.89791 8.08627C8.61071 8.37212 8.60961 8.83665 8.89546 9.12386C9.18134 9.41114 9.64592 9.41213 9.93309 9.12635L13.7668 5.31114L13.7675 5.31044C14.0548 5.02364 14.0539 4.5576 13.7674 4.27175Z" fill="#43D9BB"/>
</svg>
