<svg width="50" height="50" viewBox="0 0 50 50" fill="none" xmlns="http://www.w3.org/2000/svg">
<path d="M45.2135 20.7656C44.6301 20.7656 44.1719 21.2346 44.1719 21.818C44.1719 22.3907 44.6301 22.8596 45.2135 22.8596C45.7868 22.8596 46.2552 22.3907 46.2552 21.818C46.2552 21.2346 45.7868 20.7656 45.2135 20.7656Z" fill="#111111"/>
<path d="M45.2135 27.1484C44.6301 27.1484 44.1719 27.6067 44.1719 28.1794C44.1719 28.7628 44.6301 29.2211 45.2135 29.2211C45.7868 29.2211 46.2552 28.7628 46.2552 28.1794C46.2552 27.6067 45.7868 27.1484 45.2135 27.1484Z" fill="#111111"/>
<path d="M45.2135 23.9609C44.6301 23.9609 44.1719 24.4192 44.1719 24.9919C44.1719 25.5753 44.6301 26.0336 45.2135 26.0336C45.7868 26.0336 46.2552 25.5753 46.2552 24.9919C46.2552 24.4192 45.7868 23.9609 45.2135 23.9609Z" fill="#111111"/>
<path d="M35.5557 41.6291C36.0765 41.3687 36.2851 40.7436 36.0348 40.2329C35.7744 39.7121 35.1498 39.504 34.6391 39.7538C34.1183 40.0142 33.9103 40.6393 34.16 41.1499C34.437 41.6875 35.0705 41.8717 35.5557 41.6291V41.6291Z" fill="#111111"/>
<path d="M38.7338 40.0561C39.2547 39.8064 39.4627 39.1813 39.2023 38.6605C38.9525 38.1498 38.3274 37.9418 37.8173 38.1915C37.2965 38.4519 37.0879 39.0669 37.3377 39.5877C37.5887 40.0748 38.1804 40.3338 38.7338 40.0561V40.0561Z" fill="#111111"/>
<path d="M32.3887 43.1916C32.8994 42.9312 33.1181 42.3163 32.8577 41.7955C32.6079 41.2746 31.9828 41.0666 31.462 41.327C30.9514 41.5768 30.7326 42.2019 30.9931 42.7125C31.244 43.2439 31.8664 43.4349 32.3887 43.1916V43.1916Z" fill="#111111"/>
<path d="M15.358 39.7548C14.8372 39.4944 14.2121 39.7131 13.9618 40.2237C13.7014 40.7446 13.9201 41.3697 14.4308 41.6194C15.0198 41.8957 15.5966 41.6237 15.8264 41.151C16.0868 40.6301 15.8681 40.005 15.358 39.7548Z" fill="#111111"/>
<path d="M12.6506 39.5754C12.9111 39.0653 12.6924 38.4402 12.1817 38.1798C11.6609 37.9295 11.0358 38.1381 10.786 38.6589C10.5256 39.169 10.7443 39.7941 11.255 40.0546C11.7864 40.3038 12.4074 40.0906 12.6506 39.5754Z" fill="#111111"/>
<path d="M19.0042 42.7124C19.2646 42.2018 19.0459 41.5767 18.5352 41.3163C18.0144 41.0665 17.3893 41.2746 17.1396 41.7954C16.8791 42.3061 17.0979 42.9312 17.608 43.1916C18.1525 43.4444 18.7652 43.2186 19.0042 42.7124Z" fill="#111111"/>
<path d="M4.79557 26.0336C5.36828 26.0336 5.83723 25.5753 5.83723 25.0026C5.83723 24.4192 5.36828 23.9609 4.79557 23.9609C4.21218 23.9609 3.75391 24.4192 3.75391 25.0026C3.75391 25.5753 4.21218 26.0336 4.79557 26.0336V26.0336Z" fill="#111111"/>
<path d="M4.79557 29.2346C5.36828 29.2346 5.83723 28.7657 5.83723 28.193C5.83723 27.6096 5.36828 27.1406 4.79557 27.1406C4.21218 27.1406 3.75391 27.6096 3.75391 28.193C3.75391 28.7657 4.21218 29.2346 4.79557 29.2346V29.2346Z" fill="#111111"/>
<path d="M4.79557 22.8596C5.36828 22.8596 5.83723 22.3907 5.83723 21.818C5.83723 21.2346 5.36828 20.7656 4.79557 20.7656C4.21218 20.7656 3.75391 21.2346 3.75391 21.818C3.75391 22.3907 4.21218 22.8596 4.79557 22.8596V22.8596Z" fill="#111111"/>
<path d="M17.608 6.80455C17.0979 7.06497 16.8791 7.69007 17.1396 8.20022C17.3971 8.74631 18.0601 8.91774 18.5352 8.67934C19.0459 8.41892 19.2646 7.79433 19.0042 7.28368C18.7539 6.76285 18.1288 6.55482 17.608 6.80455Z" fill="#111111"/>
<path d="M11.255 9.94149C10.7443 10.2019 10.5256 10.8265 10.786 11.3372C11.0424 11.8801 11.7023 12.056 12.1817 11.8163C12.6924 11.5559 12.9111 10.9308 12.6506 10.4206C12.4004 9.89979 11.7758 9.69125 11.255 9.94149Z" fill="#111111"/>
<path d="M14.4308 8.37979C13.9201 8.62953 13.7014 9.25463 13.9618 9.77546C14.1938 10.2521 14.7975 10.5251 15.358 10.2439C15.8681 9.99416 16.0868 9.36907 15.8264 8.84823C15.5767 8.33808 14.9516 8.11938 14.4308 8.37979Z" fill="#111111"/>
<path d="M34.16 8.84618C33.9103 9.35683 34.1183 9.98142 34.6391 10.2418C35.1096 10.4779 35.7579 10.318 36.0348 9.76272C36.2851 9.25257 36.0765 8.62747 35.5557 8.36705C35.0455 8.11732 34.4204 8.32535 34.16 8.84618Z" fill="#111111"/>
<path d="M30.9931 7.28368C30.7326 7.79433 30.9514 8.41892 31.462 8.66917C32.0215 8.94892 32.6257 8.67823 32.8577 8.20022C33.1181 7.67939 32.8994 7.06497 32.3887 6.80455C31.8679 6.55482 31.2433 6.76285 30.9931 7.28368V7.28368Z" fill="#111111"/>
<path d="M37.3377 10.4107C37.0879 10.9316 37.2965 11.5567 37.8173 11.8064C38.2924 12.0456 38.9423 11.8735 39.2023 11.338C39.4627 10.8171 39.2547 10.192 38.7338 9.94229C38.2232 9.68188 37.5981 9.90058 37.3377 10.4107Z" fill="#111111"/>
<path d="M49.4789 11.2246L45.7263 9.05783C45.4038 8.87167 45.0071 8.87167 44.6846 9.05783L40.932 11.2246C40.6095 11.4107 40.4112 11.7545 40.4112 12.1269C40.4112 12.2338 40.4112 14.5882 40.4112 14.4487C40.4112 14.4496 40.4107 14.4504 40.4107 14.4513C40.4107 14.4522 40.4112 14.4529 40.4112 14.4538V14.7876L31.4617 19.7289L26.042 16.7056V10.304C26.3295 10.1381 29.4689 8.32539 29.2733 8.43832C29.569 8.26761 29.7703 7.93126 29.7874 7.5867C29.801 7.31209 29.7942 3.10418 29.7942 3.20865C29.7942 2.83634 29.5958 2.49251 29.2733 2.30635L25.5207 0.139617C25.1982 -0.0465391 24.8015 -0.0465391 24.479 0.139617L20.7264 2.30635C20.4039 2.49251 20.2056 2.83634 20.2056 3.20865V7.53602C20.2056 7.85184 20.3938 8.24629 20.7264 8.43832L23.9587 10.3047V16.705L18.5376 19.7292L9.58857 14.7926V12.1269C9.58857 11.7545 9.39021 11.4107 9.06774 11.2246L5.31512 9.05783C4.99265 8.87167 4.59592 8.87167 4.27346 9.05783L0.520831 11.2246C0.198363 11.4107 0 11.7545 0 12.1269V16.4542C0 16.8265 0.198363 17.1704 0.520831 17.3565L4.27346 19.5233C4.56542 19.6918 5.00531 19.702 5.31512 19.5233C5.42651 19.459 9.24691 17.2531 9.06774 17.3565C9.19738 17.2817 9.30018 17.1765 9.38487 17.0592L17.4992 21.5353V28.4643L9.38366 32.939C9.2991 32.8223 9.19681 32.7177 9.06774 32.6432C8.96213 32.5822 5.11084 30.3585 5.31512 30.4765C4.80994 30.1845 4.37899 30.4501 4.27346 30.4765L0.520831 32.6432C0.198363 32.8294 0 33.1732 0 33.5455V37.8729C0 38.2452 0.198363 38.589 0.520831 38.7752L4.27346 40.9419C4.43469 41.035 4.61423 41.0813 4.79429 41.0813C4.97434 41.0813 5.15388 41.035 5.31512 40.9419L9.06774 38.7752C9.39021 38.589 9.58857 38.2452 9.58857 37.8729V35.2047L18.5379 30.2702L23.9587 33.2946V39.6951L20.7264 41.5614C20.3849 41.7586 20.2056 42.1634 20.2056 42.4637V46.7911C20.2056 47.1634 20.4039 47.5072 20.7264 47.6929L24.479 49.8601C24.6403 49.9532 24.8198 50 24.9999 50C25.1799 50 25.3595 49.9532 25.5207 49.8601L29.2733 47.6929C29.5958 47.5072 29.7942 47.1634 29.7942 46.7911C29.7941 46.6862 29.7932 42.3548 29.7936 42.4597C29.7923 42.1497 29.6081 41.7547 29.2733 41.5614L26.042 39.6957V33.2941L31.4614 30.2706L40.4112 35.2098V35.553C40.4112 35.5539 40.4107 35.5547 40.4107 35.5556C40.4107 35.5565 40.4112 35.5572 40.4112 35.5581V37.5611C40.4112 37.5629 40.4107 37.5644 40.4107 37.5662C40.4107 37.5677 40.4112 37.5695 40.4112 37.571C40.4326 37.6808 40.2775 38.3974 40.932 38.7752L44.6846 40.9419C44.8459 41.035 45.0254 41.0813 45.2055 41.0813C45.3855 41.0813 45.5651 41.035 45.7263 40.9419L49.4789 38.7752C49.8014 38.589 49.9997 38.2452 49.9997 37.8729V33.5455C49.9997 33.1732 49.8014 32.8294 49.4789 32.6432L45.7263 30.4765C45.3339 30.249 45.0519 30.3348 44.6846 30.4765C44.5793 30.5373 40.7435 32.752 40.9722 32.62C40.8676 32.6735 40.7041 32.7902 40.6008 32.9347L32.5005 28.4643V21.5353L40.6015 17.0624C40.701 17.1928 40.8496 17.309 40.932 17.3565C41.0419 17.42 44.8463 19.6166 44.6846 19.5233C44.9773 19.6924 45.4144 19.7031 45.7263 19.5233C49.0014 17.4565 49.9997 17.4845 49.9997 16.4542V12.1269C49.9997 11.7545 49.8014 11.4107 49.4789 11.2246V11.2246ZM7.50525 15.853L4.79429 17.4181L2.08332 15.853V12.7281L4.79429 11.163L7.50525 12.7281C7.50525 13.0451 7.50525 16.0023 7.50525 15.853ZM7.50525 37.2717L4.79429 38.8367L2.08332 37.2717V34.1467L4.79429 32.5817L7.50525 34.1467C7.50525 34.4998 7.50525 37.4166 7.50525 37.2717ZM22.2889 6.93483C22.2889 6.72775 22.2889 3.66586 22.2889 3.80985L24.9999 2.24481L27.7108 3.80985V6.93483L24.9999 8.49987L22.2889 6.93483ZM23.9582 30.9088L19.5825 28.4674V22.6945L23.9582 25.1359V30.9088ZM20.6791 20.9205L24.9999 18.5101L29.3206 20.9205L24.9999 23.3313L20.6791 20.9205ZM27.7108 43.0649V46.1899L24.9999 47.7554L22.2889 46.1899C22.2889 45.794 22.2889 42.9165 22.2889 43.0649C22.539 42.9206 25.1674 41.4032 24.9999 41.4999C25.1109 41.564 27.8807 43.163 27.7108 43.0649ZM30.4172 28.4674L26.0415 30.9088V25.1359L30.4172 22.6945V28.4674ZM42.4945 34.1467L45.2055 32.5817L47.9164 34.1467V37.2717L45.2055 38.8367L42.4945 37.2717V34.1467V34.1467ZM47.9164 15.853L45.2055 17.4181L42.4945 15.853V12.7281L45.2055 11.163L47.9164 12.7281V15.853Z" fill="#111111"/>
</svg>
