<svg width="70" height="70" viewBox="0 0 70 70" fill="none" xmlns="http://www.w3.org/2000/svg">
<path d="M67.5575 22.6827L62.6356 16.0881L65.2781 8.2955C65.4529 7.78001 65.48 7.22587 65.3563 6.69578C65.2326 6.16568 64.963 5.68078 64.5781 5.29593C64.1931 4.91108 63.7081 4.64164 63.178 4.51809C62.6479 4.39454 62.0937 4.4218 61.5783 4.59681L53.7871 7.23931L47.1929 2.31743C46.7567 1.99193 46.2382 1.79496 45.6959 1.74879C45.1536 1.70263 44.6093 1.80911 44.1243 2.0562C43.6394 2.30329 43.2333 2.68112 42.9519 3.14698C42.6705 3.61284 42.5251 4.14813 42.5321 4.69233L42.6371 12.9202L35.9189 17.6719C35.4746 17.9861 35.127 18.4184 34.9155 18.9198C34.7041 19.4213 34.6371 19.9719 34.7222 20.5094C34.8073 21.0469 35.0411 21.5499 35.3972 21.9615C35.7532 22.373 36.2174 22.6768 36.737 22.8384L41.543 24.3332L0.855469 65.0207L4.98036 69.1456L45.6022 28.523L47.0372 33.1386C47.1987 33.658 47.5023 34.122 47.9136 34.478C48.3248 34.834 48.8275 35.0679 49.3647 35.1533C49.5157 35.1775 49.6683 35.1897 49.8212 35.1897C50.2877 35.1897 50.7475 35.0777 51.1618 34.8632C51.5761 34.6487 51.9329 34.338 52.2023 33.9571L56.9535 27.2389L65.1826 27.3439H65.219C65.7601 27.3438 66.2904 27.1932 66.7508 26.909C67.2112 26.6248 67.5834 26.2181 67.8259 25.7345C68.0684 25.2508 68.1716 24.7092 68.1239 24.1703C68.0762 23.6313 67.8796 23.1163 67.556 22.6827H67.5575Z" fill="black"/>
<path d="M59.2371 46.8389C57.8618 46.8278 56.5471 46.2717 55.5814 45.2926C54.6156 44.3134 54.0777 42.9912 54.0855 41.6159C54.0855 41.4225 54.0087 41.237 53.872 41.1003C53.7352 40.9635 53.5497 40.8867 53.3564 40.8867C53.163 40.8867 52.9775 40.9635 52.8408 41.1003C52.704 41.237 52.6272 41.4225 52.6272 41.6159C52.6351 42.9912 52.0971 44.3135 51.1312 45.2927C50.1654 46.2718 48.8506 46.8279 47.4753 46.8389C47.2819 46.8389 47.0964 46.9157 46.9597 47.0525C46.8229 47.1892 46.7461 47.3747 46.7461 47.5681C46.7461 47.7615 46.8229 47.9469 46.9597 48.0837C47.0964 48.2204 47.2819 48.2972 47.4753 48.2972C48.8503 48.3083 50.1648 48.8642 51.1306 49.8431C52.0964 50.8219 52.6346 52.1437 52.6272 53.5188C52.6272 53.7122 52.704 53.8977 52.8408 54.0344C52.9775 54.1711 53.163 54.248 53.3564 54.248C53.5497 54.248 53.7352 54.1711 53.872 54.0344C54.0087 53.8977 54.0855 53.7122 54.0855 53.5188C54.0778 52.1436 54.6157 50.8214 55.5815 49.8422C56.5472 48.8631 57.8619 48.307 59.2371 48.2958C59.4305 48.2958 59.6159 48.219 59.7527 48.0822C59.8894 47.9455 59.9663 47.76 59.9663 47.5666C59.9663 47.3732 59.8894 47.1878 59.7527 47.051C59.6159 46.9143 59.4305 46.8374 59.2371 46.8374V46.8389Z" fill="black"/>
<path d="M23.4128 7.46521C24.7878 7.47629 26.1023 8.03219 27.0681 9.01102C28.0339 9.98985 28.5721 11.3117 28.5647 12.6868C28.5647 12.8802 28.6415 13.0656 28.7783 13.2024C28.915 13.3391 29.1005 13.4159 29.2939 13.4159C29.4872 13.4159 29.6727 13.3391 29.8095 13.2024C29.9462 13.0656 30.023 12.8802 30.023 12.6868C30.0153 11.3115 30.5532 9.98934 31.519 9.01021C32.4847 8.03107 33.7994 7.47493 35.1746 7.46375C35.368 7.46375 35.5534 7.38693 35.6902 7.25018C35.8269 7.11344 35.9037 6.92797 35.9037 6.73458C35.9037 6.5412 35.8269 6.35573 35.6902 6.21898C35.5534 6.08224 35.368 6.00542 35.1746 6.00542C33.7996 5.99434 32.4851 5.43842 31.5194 4.45958C30.5537 3.48074 30.0155 2.15888 30.023 0.783854C30.023 0.590467 29.9462 0.405001 29.8095 0.268255C29.6727 0.13151 29.4872 0.0546875 29.2939 0.0546875C29.1005 0.0546875 28.915 0.13151 28.7783 0.268255C28.6415 0.405001 28.5647 0.590467 28.5647 0.783854C28.5726 2.15919 28.0345 3.48149 27.0687 4.46065C26.1029 5.43982 24.7881 5.99589 23.4128 6.00688C23.2194 6.00688 23.0339 6.0837 22.8972 6.22044C22.7604 6.35719 22.6836 6.54265 22.6836 6.73604C22.6836 6.92943 22.7604 7.1149 22.8972 7.25164C23.0339 7.38839 23.2194 7.46521 23.4128 7.46521V7.46521Z" fill="black"/>
<path d="M5.18424 31.8924C6.55927 31.9035 7.8738 32.4594 8.83957 33.4383C9.80535 34.4171 10.3436 35.739 10.3362 37.114C10.3362 37.3074 10.413 37.4929 10.5497 37.6296C10.6865 37.7664 10.872 37.8432 11.0653 37.8432C11.2587 37.8432 11.4442 37.7664 11.5809 37.6296C11.7177 37.4929 11.7945 37.3074 11.7945 37.114C11.7867 35.7388 12.3247 34.4166 13.2905 33.4374C14.2562 32.4583 15.5708 31.9022 16.9461 31.891C17.1395 31.891 17.3249 31.8142 17.4617 31.6774C17.5984 31.5407 17.6752 31.3552 17.6752 31.1618C17.6752 30.9684 17.5984 30.783 17.4617 30.6462C17.3249 30.5095 17.1395 30.4327 16.9461 30.4327C15.5708 30.4216 14.2561 29.8655 13.2904 28.8863C12.3246 27.9071 11.7866 26.5849 11.7945 25.2096C11.7945 25.0162 11.7177 24.8308 11.5809 24.694C11.4442 24.5573 11.2587 24.4805 11.0653 24.4805C10.872 24.4805 10.6865 24.5573 10.5497 24.694C10.413 24.8308 10.3362 25.0162 10.3362 25.2096C10.3444 26.5852 9.80659 27.9079 8.84071 28.8874C7.87483 29.8669 6.55981 30.4231 5.18424 30.4341C4.99086 30.4341 4.80539 30.5109 4.66865 30.6477C4.5319 30.7844 4.45508 30.9699 4.45508 31.1633C4.45508 31.3567 4.5319 31.5421 4.66865 31.6789C4.80539 31.8156 4.99086 31.8924 5.18424 31.8924V31.8924Z" fill="black"/>
</svg>
