<svg width="20" height="20" viewBox="0 0 20 20" fill="none" xmlns="http://www.w3.org/2000/svg">
<g clip-path="url(#clip0_2656_7270)">
<path d="M10 0.417969C4.475 0.417969 0 4.81797 0 10.2446C0 14.5871 2.865 18.2696 6.8375 19.568C7.3375 19.6605 7.52083 19.3563 7.52083 19.0955C7.52083 18.8621 7.5125 18.2438 7.50833 17.4246C4.72667 18.0171 4.14 16.1063 4.14 16.1063C3.685 14.9721 3.0275 14.6688 3.0275 14.6688C2.12167 14.0596 3.0975 14.0721 3.0975 14.0721C4.10167 14.1405 4.62917 15.0846 4.62917 15.0846C5.52083 16.5871 6.97 16.153 7.54167 15.9021C7.63167 15.2663 7.88917 14.8338 8.175 14.588C5.95417 14.3421 3.62 13.4971 3.62 9.73214C3.62 8.65964 4.0075 7.78297 4.64917 7.09547C4.53667 6.84714 4.19917 5.84797 4.73667 4.49464C4.73667 4.49464 5.57417 4.2313 7.48667 5.50214C8.28667 5.2838 9.13667 5.17547 9.98667 5.17047C10.8367 5.17547 11.6867 5.2838 12.4867 5.50214C14.3867 4.2313 15.2242 4.49464 15.2242 4.49464C15.7617 5.84797 15.4242 6.84714 15.3242 7.09547C15.9617 7.78297 16.3492 8.65964 16.3492 9.73214C16.3492 13.5071 14.0117 14.338 11.7867 14.5796C12.1367 14.8746 12.4617 15.4771 12.4617 16.398C12.4617 17.713 12.4492 18.7696 12.4492 19.0888C12.4492 19.3463 12.6242 19.6538 13.1367 19.5555C17.1375 18.2655 20 14.5805 20 10.2446C20 4.81797 15.5225 0.417969 10 0.417969V0.417969Z" fill="black"/>
</g>
<defs>
<clipPath id="clip0_2656_7270">
<rect width="20" height="20" fill="white"/>
</clipPath>
</defs>
</svg>
