<svg width="70" height="70" viewBox="0 0 70 70" fill="none" xmlns="http://www.w3.org/2000/svg">
<path d="M8.33984 2.05078V55.6445C8.33984 56.7781 9.25709 57.6953 10.3906 57.6953H47.3047C48.4382 57.6953 49.3555 56.7781 49.3555 55.6445V2.05078C49.3555 0.917246 48.4382 0 47.3047 0H10.3906C9.25709 0 8.33984 0.917246 8.33984 2.05078ZM41.1523 47.3047H32.9492C31.8157 47.3047 30.8984 46.3874 30.8984 45.2539C30.8984 44.1204 31.8157 43.2031 32.9492 43.2031H41.1523C42.2859 43.2031 43.2031 44.1204 43.2031 45.2539C43.2031 46.3874 42.2859 47.3047 41.1523 47.3047ZM16.543 10.3906H28.8477C29.9812 10.3906 30.8984 11.3079 30.8984 12.4414C30.8984 13.5749 29.9812 14.4922 28.8477 14.4922H16.543C15.4094 14.4922 14.4922 13.5749 14.4922 12.4414C14.4922 11.3079 15.4094 10.3906 16.543 10.3906ZM16.543 18.5938H41.1523C42.2859 18.5938 43.2031 19.511 43.2031 20.6445C43.2031 21.7781 42.2859 22.6953 41.1523 22.6953H16.543C15.4094 22.6953 14.4922 21.7781 14.4922 20.6445C14.4922 19.511 15.4094 18.5938 16.543 18.5938ZM16.543 26.7969H41.1523C42.2859 26.7969 43.2031 27.7141 43.2031 28.8477C43.2031 29.9812 42.2859 30.8984 41.1523 30.8984H16.543C15.4094 30.8984 14.4922 29.9812 14.4922 28.8477C14.4922 27.7141 15.4094 26.7969 16.543 26.7969ZM16.543 35H41.1523C42.2859 35 43.2031 35.9172 43.2031 37.0508C43.2031 38.1843 42.2859 39.1016 41.1523 39.1016H16.543C15.4094 39.1016 14.4922 38.1843 14.4922 37.0508C14.4922 35.9172 15.4094 35 16.543 35Z" fill="black"/>
<path d="M22.6953 70H59.6094C60.7429 70 61.6602 69.0828 61.6602 67.9492V14.4922C61.6602 13.3587 60.7429 12.4414 59.6094 12.4414H53.457V55.6445C53.457 59.0371 50.6972 61.7969 47.3047 61.7969H20.6445V67.9492C20.6445 69.0828 21.5618 70 22.6953 70Z" fill="black"/>
</svg>
