<svg width="70" height="70" viewBox="0 0 70 70" fill="none" xmlns="http://www.w3.org/2000/svg">
<g clip-path="url(#clip0_2656_7022)">
<path d="M64.1666 14.5822H49.5834V11.6654C49.5834 8.44828 46.9673 5.83203 43.75 5.83203H26.25C23.0329 5.83203 20.4166 8.44814 20.4166 11.6654V14.582H5.83338C2.61611 14.5822 0 17.1983 0 20.4154V29.1654C0 32.3827 2.61611 34.9988 5.83338 34.9988H29.1668V33.5404C29.1668 32.7343 29.819 32.082 30.6251 32.082H39.3751C40.1812 32.082 40.8335 32.7343 40.8335 33.5404V34.9988H64.1669C67.3839 34.9988 70 32.3827 70 29.1654V20.4154C70 17.1983 67.3839 14.5822 64.1666 14.5822ZM43.75 14.5822H26.25V11.6654H43.75V14.5822Z" fill="black"/>
<path d="M69.191 36.572C68.6941 36.3256 68.1002 36.3826 67.6614 36.7158C66.6247 37.5006 65.4169 37.915 64.1665 37.915H40.8334V42.29C40.8334 43.0961 40.1811 43.7483 39.375 43.7483H30.625C29.8189 43.7483 29.1666 43.0961 29.1666 42.29V37.915H5.83338C4.58295 37.915 3.37531 37.5006 2.33844 36.7158C1.89834 36.3798 1.30594 36.3227 0.808828 36.572C0.313359 36.8185 0 37.3239 0 37.8781V58.3317C0 61.5489 2.61611 64.1651 5.83338 64.1651H64.1668C67.3839 64.1651 70.0001 61.549 70.0001 58.3317V37.8781C70 37.3239 69.6866 36.8185 69.191 36.572Z" fill="black"/>
</g>
<defs>
<clipPath id="clip0_2656_7022">
<rect width="70" height="70" fill="white"/>
</clipPath>
</defs>
</svg>
