<svg width="50" height="50" viewBox="0 0 50 50" fill="none" xmlns="http://www.w3.org/2000/svg">
<path d="M9.1686 19.1653C10.0891 19.1653 10.8352 18.4191 10.8352 17.4987C10.8352 16.5782 10.0891 15.832 9.1686 15.832C8.24814 15.832 7.50195 16.5782 7.50195 17.4987C7.50195 18.4191 8.24814 19.1653 9.1686 19.1653Z" fill="#111111"/>
<path d="M11.5846 24.168H6.74977C6.24481 24.168 5.83398 24.5479 5.83398 25.0146V28.5312C6.86891 28.937 7.99055 29.1678 9.16717 29.1678C10.3438 29.1678 11.4654 28.937 12.5004 28.5312V25.0146C12.5004 24.548 12.0895 24.168 11.5846 24.168Z" fill="#111111"/>
<path d="M29.1666 8.33329C30.0871 8.33329 30.8333 7.58711 30.8333 6.66664C30.8333 5.74618 30.0871 5 29.1666 5C28.2462 5 27.5 5.74618 27.5 6.66664C27.5 7.58711 28.2462 8.33329 29.1666 8.33329Z" fill="#111111"/>
<path d="M31.5846 13.332H26.7498C26.2448 13.332 25.834 13.712 25.834 14.1787V17.6953C26.8689 18.1011 27.9906 18.3319 29.1672 18.3319C30.3438 18.3319 31.4654 18.101 32.5004 17.6953V14.1787C32.5004 13.712 32.0895 13.332 31.5846 13.332Z" fill="#111111"/>
<path d="M40.0006 30.0013C40.9211 30.0013 41.6673 29.2551 41.6673 28.3346C41.6673 27.4141 40.9211 26.668 40.0006 26.668C39.0802 26.668 38.334 27.4141 38.334 28.3346C38.334 29.2551 39.0802 30.0013 40.0006 30.0013Z" fill="#111111"/>
<path d="M42.4186 35H37.5838C37.0788 35 36.668 35.38 36.668 35.8467V39.3632C37.7029 39.7691 38.8245 39.9998 40.0012 39.9998C41.1778 39.9998 42.2994 39.769 43.3343 39.3632V35.8467C43.3343 35.3808 42.9235 35 42.4186 35Z" fill="#111111"/>
<path d="M40.0003 21.6668C39.8887 21.6668 39.7803 21.6793 39.6704 21.6835L36.1363 15.102C37.4046 13.6171 38.2004 11.7246 38.3087 9.64968L43.551 12.1805C43.4168 12.5413 43.3335 12.9271 43.3335 13.3337C43.3335 15.1721 44.8285 16.6669 46.6667 16.6669C48.505 16.6669 49.9999 15.172 49.9999 13.3337C49.9999 11.4954 48.5049 10.0005 46.6667 10.0005C45.8476 10.0005 45.1068 10.3088 44.526 10.8005L38.2111 7.7514C37.4411 2.82071 32.7405 -0.824973 27.4215 0.162495C23.7832 0.837472 20.8566 3.75486 20.1692 7.39057C20.0808 7.85726 20.0308 8.31886 20.0116 8.77383L15.0726 12.9996C13.676 11.8196 11.9244 11.0496 10.0011 10.8755V6.54812C11.4344 6.17567 12.501 4.88236 12.501 3.33319C12.501 1.49487 11.0061 0 9.16786 0C7.32954 0 5.83467 1.49497 5.83467 3.33319C5.83467 4.88226 6.90133 6.17558 8.33459 6.54812V10.8755C3.6697 11.2988 0.00156245 15.2263 0.00156245 19.9994C0.00156245 23.2093 1.66323 26.0342 4.16812 27.6725V25.0126C4.16812 23.6269 5.32726 22.4994 6.75056 22.4994H11.5854C13.0094 22.4994 14.1678 23.6269 14.1678 25.0126V27.6725C16.2494 26.3117 17.7318 24.1252 18.1793 21.5852L21.94 24.5168C21.7658 24.9209 21.6667 25.3651 21.6667 25.8325C21.6667 27.6709 23.1616 29.1657 24.9999 29.1657C26.8381 29.1657 28.333 27.6708 28.333 25.8325C28.333 23.9942 26.8381 22.4994 24.9999 22.4994C24.2332 22.4994 23.5349 22.7701 22.9707 23.2068L18.3117 19.5753C18.2183 17.5362 17.4659 15.6663 16.2484 14.1863L20.1566 10.8414C20.6224 13.3447 22.1082 15.4929 24.1664 16.8387V14.1788C24.1664 12.793 25.3255 11.6655 26.7488 11.6655H31.5836C33.0077 11.6655 34.1661 12.793 34.1661 14.1788V15.0521C34.1661 15.4012 34.3677 15.6705 34.6335 15.8096L37.9117 21.9153C33.8619 22.8644 30.8336 26.4977 30.8336 30.8325C30.8336 31.8683 31.0228 32.8565 31.3411 33.7849L27.9671 36.3157C26.3889 33.5433 23.4123 31.6658 19.9999 31.6658C15.2267 31.6658 11.2986 35.3341 10.8761 39.9989H6.54812C6.17567 38.5656 4.88148 37.499 3.33319 37.499C1.49497 37.4988 0 38.9937 0 40.832C0 42.6704 1.49497 44.1652 3.33319 44.1652C4.88148 44.1652 6.17558 43.0986 6.54812 41.6653H10.8871C11.148 44.5252 12.7154 47.0109 15.0004 48.5051V45.8453C15.0004 44.4595 16.1595 43.332 17.5828 43.332H22.4176C23.8417 43.332 25 44.4595 25 45.8453V48.5051C26.9558 47.2269 28.3841 45.2194 28.9224 42.8753L34.3838 45.5127C34.2496 45.8736 34.1663 46.2594 34.1663 46.666C34.1663 48.5043 35.6613 49.9992 37.4995 49.9992C39.3379 49.9992 40.8327 48.5043 40.8327 46.666C40.8327 44.8278 39.3378 43.3328 37.4995 43.3328C36.6804 43.3328 35.9396 43.6411 35.3588 44.1328L29.1474 41.1338C29.1507 41.0321 29.1665 40.9347 29.1665 40.8329C29.1665 39.7963 28.9857 38.8038 28.6674 37.8738L32.0348 35.348C32.7605 36.6197 33.7772 37.7055 35.0005 38.5055V35.8456C35.0005 34.4598 36.1596 33.3323 37.5829 33.3323H42.4177C43.8418 33.3323 45.0002 34.4598 45.0002 35.8456V38.5055C47.5051 36.8671 49.1667 34.0422 49.1667 30.8324C49.1667 25.7791 45.0544 21.6668 40.0003 21.6668ZM9.16806 20.8335C7.32974 20.8335 5.83486 19.3385 5.83486 17.5003C5.83486 15.6621 7.32984 14.1671 9.16806 14.1671C11.0063 14.1671 12.5012 15.6621 12.5012 17.5003C12.5012 19.3385 11.0055 20.8335 9.16806 20.8335ZM29.1674 10.0005C27.3291 10.0005 25.8342 8.50558 25.8342 6.66736C25.8342 4.82914 27.3292 3.33417 29.1674 3.33417C31.0056 3.33417 32.5006 4.82914 32.5006 6.66736C32.5006 8.50558 31.0048 10.0005 29.1674 10.0005ZM20.001 41.6661C18.1627 41.6661 16.6678 40.1711 16.6678 38.3329C16.6678 36.4946 18.1628 34.9997 20.001 34.9997C21.8392 34.9997 23.3342 36.4947 23.3342 38.3329C23.3342 40.1712 21.8384 41.6661 20.001 41.6661ZM40.0003 31.6664C38.162 31.6664 36.6671 30.1715 36.6671 28.3332C36.6671 26.4949 38.1621 25 40.0003 25C41.8386 25 43.3335 26.495 43.3335 28.3332C43.3335 30.1723 41.8378 31.6664 40.0003 31.6664Z" fill="#111111"/>
<path d="M20.0006 40.0013C20.9211 40.0013 21.6673 39.2551 21.6673 38.3346C21.6673 37.4141 20.9211 36.668 20.0006 36.668C19.0802 36.668 18.334 37.4141 18.334 38.3346C18.334 39.2551 19.0802 40.0013 20.0006 40.0013Z" fill="#111111"/>
<path d="M22.4186 45H17.5838C17.0788 45 16.668 45.38 16.668 45.8467V49.3632C17.7029 49.7691 18.8245 49.9998 20.0012 49.9998C21.1778 49.9998 22.2994 49.769 23.3343 49.3632V45.8467C23.3343 45.3808 22.9235 45 22.4186 45Z" fill="#111111"/>
</svg>
