<svg width="154" height="70" viewBox="0 0 154 70" fill="none" xmlns="http://www.w3.org/2000/svg">
<g clip-path="url(#clip0_2656_6153)">
<path d="M92.7602 30.7339L84.7144 22.6881C84.2654 22.2393 83.5377 22.2394 83.0889 22.6884C82.8734 22.9039 82.7524 23.196 82.7523 23.5008V26.9489H74.7066C74.0717 26.9489 73.5571 27.4635 73.5571 28.0984C73.5571 28.7332 74.0717 29.2478 74.7066 29.2478H83.9018C84.5366 29.2478 85.0512 28.7332 85.0512 28.0984V26.2753L90.3223 31.5465L85.0512 36.8176V34.9947C85.0512 34.3599 84.5366 33.8453 83.9018 33.8453H71.2584V30.3971C71.2582 29.7622 70.7435 29.2478 70.1087 29.2479C69.8041 29.248 69.5118 29.369 69.2963 29.5845L61.2506 37.6302C60.8019 38.0791 60.8019 38.8067 61.2506 39.2555L69.2964 47.3013C69.5119 47.5168 69.8042 47.638 70.109 47.6381C70.2601 47.6385 70.4098 47.6088 70.5492 47.5507C70.9786 47.3726 71.2585 46.9535 71.2584 46.4886V43.0405H79.3042C79.939 43.0405 80.4536 42.5259 80.4536 41.891C80.4536 41.2562 79.939 40.7416 79.3042 40.7416H70.109C69.4742 40.7416 68.9596 41.2562 68.9596 41.891V43.714L63.6885 38.4429L68.9596 33.1717V34.9947C68.9596 35.6295 69.4742 36.1441 70.109 36.1441H82.7523V39.5923C82.7525 40.2271 83.2672 40.7416 83.902 40.7414C84.2066 40.7414 84.4989 40.6203 84.7144 40.4049L92.7602 32.3591C93.2088 31.9102 93.2088 31.1827 92.7602 30.7339Z" fill="black"/>
<path d="M18.8648 28.1012C22.3244 30.0987 27.9257 30.0987 31.3647 28.1012C34.814 26.1036 34.7831 22.8603 31.3235 20.8627C27.8639 18.8652 22.2626 18.8652 18.8236 20.8627C15.3846 22.8603 15.4052 26.0933 18.8648 28.1012ZM20.4504 24.6415C20.7181 24.5592 20.9756 24.4665 21.233 24.3841C21.4286 24.3224 21.5419 24.3121 21.6242 24.3532C21.6757 24.3841 21.7066 24.4253 21.7478 24.4974C21.9228 24.8269 22.2111 25.1152 22.5715 25.3829C22.6333 25.4344 22.6951 25.4756 22.7671 25.5167C22.9628 25.63 23.179 25.7124 23.4467 25.7742C24.116 25.9183 24.7132 25.6609 24.6411 25.249C24.6205 25.1049 24.5484 24.9813 24.4558 24.8475C24.2292 24.5077 23.9409 24.1885 23.7865 23.8384C23.5394 23.2618 23.6526 22.747 24.4455 22.3351C25.3516 21.8718 26.3503 21.8512 27.4211 22.1292C27.8536 22.2528 27.8536 22.2528 28.1934 22.0571C28.3066 21.9954 28.4199 21.9233 28.5332 21.8615C28.7906 21.7173 28.8832 21.7173 29.1407 21.8615C29.223 21.9027 29.2951 21.9542 29.3775 21.9954C29.9129 22.3042 29.9129 22.3042 29.3878 22.6234C29.0068 22.8397 29.0068 22.8397 29.326 23.0971C29.5731 23.2927 29.7584 23.4986 29.9129 23.7252C29.9953 23.8487 29.9438 23.9414 29.7481 24.0032C29.4496 24.0958 29.151 24.1988 28.8524 24.2915C28.667 24.3429 28.5538 24.3532 28.4714 24.3121C28.4302 24.2812 28.389 24.24 28.3478 24.1782C28.1522 23.859 27.8536 23.5913 27.452 23.3545C27.4006 23.3236 27.3388 23.2927 27.277 23.2618C27.1431 23.2 27.0196 23.1383 26.8548 23.0971C26.2782 22.9632 25.7737 23.1794 25.8458 23.5398C25.8767 23.7252 25.9796 23.8899 26.1032 24.0546C26.3091 24.343 26.5254 24.6313 26.6798 24.9298C27.1637 25.8977 26.1135 26.845 24.4352 26.9377C23.8277 26.9686 23.2511 26.8965 22.726 26.7214C22.4994 26.6494 22.3244 26.6597 22.1391 26.7729C21.964 26.8862 21.7684 26.9891 21.5933 27.0921C21.4286 27.1848 21.2536 27.1951 21.0888 27.1024C20.9653 27.0406 20.852 26.9686 20.7284 26.9068C20.6461 26.8553 20.5637 26.8141 20.4813 26.7626C20.3063 26.6597 20.3269 26.5567 20.4916 26.4537C20.6255 26.3714 20.7593 26.2993 20.8829 26.2169C21.1815 26.0419 21.1815 26.0316 20.9344 25.8359C20.6255 25.5888 20.3475 25.3314 20.1724 25.0431C20.0592 24.8166 20.0901 24.7651 20.4504 24.6415ZM32.487 28.7395C33.4446 28.1835 34.9891 28.1835 35.9466 28.7395C36.9042 29.2956 36.9145 30.1913 35.9569 30.7474C35.0096 31.3034 33.4549 31.3034 32.4973 30.7474C31.5397 30.1913 31.5294 29.2956 32.487 28.7395ZM14.2417 18.2063C15.1992 17.6502 16.7437 17.6502 17.7116 18.2063C18.6691 18.7623 18.6794 19.6581 17.7219 20.2141C16.7746 20.7701 15.2198 20.7701 14.2622 20.2141C13.2944 19.6581 13.2841 18.7623 14.2417 18.2063ZM1.27839 22.4999L28.5949 38.2638C30.1703 39.1802 32.7341 39.1802 34.2992 38.2638L48.9305 29.7589C50.4956 28.8425 50.4955 27.3598 48.9202 26.4537L21.6036 10.6795C20.0283 9.76314 17.4645 9.77344 15.8891 10.6795L1.2578 19.1947C-0.307267 20.1008 -0.29697 21.5835 1.27839 22.4999ZM7.20916 19.1535C7.03412 19.0506 6.84878 18.9682 6.65315 18.8858L15.3949 13.8097C15.5287 13.9229 15.6832 14.0259 15.8582 14.1288C17.4542 15.0555 20.0489 15.0452 21.6345 14.1288C21.8199 14.0259 21.9743 13.9126 22.1082 13.7891L43.3807 26.0728C43.0924 26.1757 42.835 26.289 42.5879 26.4331C40.9919 27.3598 41.0022 28.8528 42.6084 29.7795C42.8556 29.9236 43.1233 30.0369 43.4116 30.1399L34.5875 35.2675C34.4125 35.1028 34.2065 34.9483 33.9594 34.8042C32.3532 33.8775 29.7687 33.8775 28.1831 34.8042C28.0595 34.8762 27.9566 34.9483 27.8536 35.0307L6.64286 22.7779C6.84878 22.6955 7.04442 22.6028 7.21946 22.4999C8.81541 21.5835 8.80512 20.0802 7.20916 19.1535ZM0.567934 25.6506C1.2578 25.2902 2.33893 25.3417 3.0082 25.733L31.55 42.2073L46.9845 33.2391C47.6537 32.8478 48.7451 32.8478 49.4144 33.2391C50.094 33.6304 50.094 34.2585 49.4247 34.6497L33.0224 44.1843C32.2193 44.6476 30.9116 44.6476 30.1085 44.1843L29.5319 43.8548L29.1304 43.618L0.506155 27.1024C-0.183709 26.6905 -0.173413 26.0316 0.567934 25.6506ZM49.4556 39.8083L33.0533 49.3428C32.2502 49.8061 30.9425 49.8061 30.1394 49.3428L29.5628 49.0133L29.151 48.7765L0.537044 32.2506C-0.163116 31.8491 -0.142523 31.1901 0.598823 30.7988C1.28869 30.4385 2.36982 30.4899 3.03909 30.8812L31.5809 47.3556L47.005 38.3976C47.6743 38.0064 48.7657 38.0064 49.4453 38.3976C50.1146 38.7889 50.1249 39.417 49.4556 39.8083ZM0.567934 35.9574C1.2578 35.597 2.33893 35.6485 3.0082 36.0397L31.55 52.5244L46.9845 43.5459C47.6537 43.1546 48.7451 43.1546 49.4144 43.5459C50.094 43.9371 50.094 44.5652 49.4247 44.9565L33.0224 54.491C32.2193 54.9544 30.9116 54.9544 30.1085 54.491L29.5319 54.1615L29.1304 53.9247L0.506155 37.4092C-0.183709 37.0076 -0.173413 36.3486 0.567934 35.9574ZM49.4556 50.115L33.0533 59.6496C32.2502 60.1129 30.9425 60.1129 30.1394 59.6496L29.5628 59.3201L29.151 59.0833L0.537044 42.5574C-0.163116 42.1559 -0.142523 41.4969 0.598823 41.1056C1.28869 40.7452 2.36982 40.7967 3.03909 41.188L31.5809 57.6623L47.0153 48.6941C47.6846 48.3028 48.776 48.3028 49.4556 48.6941C50.1146 49.0957 50.1249 49.7238 49.4556 50.115Z" fill="black"/>
<path d="M128.074 9C113.715 9 102.074 20.6404 102.074 35C102.074 49.3596 113.715 61 128.074 61C142.434 61 154.074 49.3596 154.074 35C154.074 20.6404 142.434 9 128.074 9ZM128.074 56.125C116.425 56.125 106.949 46.648 106.949 35C106.949 23.352 116.425 13.875 128.074 13.875C139.723 13.875 149.199 23.3509 149.199 35C149.199 46.6491 139.722 56.125 128.074 56.125Z" fill="black"/>
<path d="M129.416 35.8438H126.002V40.9148H129.416C130.105 40.9148 130.744 40.6353 131.192 40.1663C131.661 39.7167 131.941 39.0786 131.941 38.369C131.942 36.9813 130.803 35.8438 129.416 35.8438V35.8438Z" fill="black"/>
<path d="M128.074 16.043C117.619 16.043 109.115 24.5471 109.115 35.0013C109.115 45.4555 117.619 53.9596 128.074 53.9596C138.528 53.9596 147.032 45.4544 147.032 35.0013C147.032 24.5482 138.527 16.043 128.074 16.043ZM131.931 43.7806H129.695V47.295H127.35V43.7806H126.062V47.295H123.706V43.7806H119.563V41.575H121.849V28.3583H119.563V26.1526H123.706V22.7087H126.062V26.1526H127.35V22.7087H129.695V26.1526H131.732C132.869 26.1526 133.918 26.6217 134.667 27.3703C135.415 28.1189 135.884 29.1676 135.884 30.3051C135.884 32.5313 134.127 34.3481 131.931 34.4477C134.506 34.4477 136.583 36.544 136.583 39.1191C136.583 41.6844 134.507 43.7806 131.931 43.7806V43.7806Z" fill="black"/>
<path d="M130.924 32.7294C131.333 32.3199 131.582 31.7706 131.582 31.152C131.582 29.9246 130.584 28.9258 129.356 28.9258H126.002V33.388H129.356C129.965 33.388 130.524 33.128 130.924 32.7294Z" fill="black"/>
</g>
<defs>
<clipPath id="clip0_2656_6153">
<rect width="154" height="70" fill="white"/>
</clipPath>
</defs>
</svg>
