<svg width="70" height="70" viewBox="0 0 70 70" fill="none" xmlns="http://www.w3.org/2000/svg">
<g clip-path="url(#clip0_2656_6986)">
<path d="M41.7531 28.2471C42.1534 28.6474 42.6783 28.8477 43.2031 28.8477C43.728 28.8477 44.2529 28.6474 44.6532 28.2471L48.7547 24.1455C49.5556 23.3446 49.5556 22.0462 48.7547 21.2453L44.6532 17.1437C43.8524 16.343 42.5539 16.343 41.753 17.1437C40.9521 17.9446 40.9521 19.2431 41.753 20.044L44.4045 22.6953L41.7531 25.3467C40.9521 26.1476 40.9521 27.4462 41.7531 28.2471ZM33.4772 28.7864C33.6442 28.8281 33.8114 28.8481 33.9761 28.8481C34.895 28.8481 35.7312 28.226 35.964 27.2942L38.0148 19.091C38.2896 17.9922 37.6214 16.8788 36.5226 16.6041C35.4251 16.3297 34.3104 16.9975 34.0359 18.0963L31.9851 26.2994C31.7104 27.3983 32.3784 28.5118 33.4772 28.7864V28.7864ZM25.3468 28.2471C25.7472 28.6474 26.272 28.8477 26.7969 28.8477C27.3217 28.8477 27.8466 28.6474 28.2469 28.2471C29.0478 27.4462 29.0478 26.1478 28.2469 25.3469L25.5955 22.6953L28.2469 20.044C29.0478 19.2431 29.0478 17.9446 28.2469 17.1437C27.4462 16.343 26.1476 16.343 25.3467 17.1437L21.2451 21.2453C20.4442 22.0462 20.4442 23.3446 21.2451 24.1455L25.3468 28.2471ZM70 34.9965C69.9986 34.253 69.595 33.5685 68.9451 33.2074L61.1302 28.8657L68.9515 24.4846C69.599 24.1219 70 23.4376 70 22.6953C70 21.9531 69.599 21.2688 68.9515 20.9061L36.0023 2.44908C35.3795 2.10031 34.6205 2.10031 33.9977 2.44908L1.0485 20.9061C0.401 21.2688 3.48256e-06 21.9531 3.48256e-06 22.6953C3.48256e-06 23.4376 0.401 24.1219 1.0485 24.4846L8.86977 28.8657L1.05493 33.2074C0.404964 33.5685 0.00137067 34.253 3.48256e-06 34.9965C-0.0013637 35.74 0.399906 36.4259 1.0485 36.7893L8.86977 41.1704L1.05493 45.5121C0.404964 45.8731 0.00137067 46.5577 3.48256e-06 47.3012C-0.0013637 48.0446 0.399906 48.7306 1.0485 49.094L33.9977 67.551C34.309 67.7254 34.6547 67.8125 35 67.8125C35.3454 67.8125 35.691 67.7253 36.0023 67.551L68.9515 49.094C69.6001 48.7306 70.0014 48.0446 70 47.3012C69.9986 46.5577 69.595 45.8731 68.9451 45.5121L61.1302 41.1704L68.9515 36.7893C69.6001 36.4259 70.0014 35.74 70 34.9965V34.9965ZM35 38.8018L6.24709 22.6953L35 6.58892L63.7529 22.6953L35 38.8018ZM63.7398 47.3121L35 63.4111L6.26022 47.3121L13.0751 43.5261L33.9977 55.2463C34.309 55.4208 34.6547 55.5078 35 55.5078C35.3454 55.5078 35.691 55.4206 36.0023 55.2463L56.9249 43.5261L63.7398 47.3121ZM6.26008 35.0074L13.075 31.2214L33.9976 42.9416C34.3089 43.1161 34.6545 43.2032 34.9999 43.2032C35.3452 43.2032 35.6908 43.1159 36.0022 42.9416L56.9248 31.2214L63.7397 35.0074L35 51.1065L6.26008 35.0074Z" fill="black"/>
</g>
<defs>
<clipPath id="clip0_2656_6986">
<rect width="70" height="70" fill="white"/>
</clipPath>
</defs>
</svg>
