<svg width="70" height="70" viewBox="0 0 70 70" fill="none" xmlns="http://www.w3.org/2000/svg">
<g clip-path="url(#clip0_2656_6995)">
<path d="M61.2505 5.23047V61.2505C61.2463 64.7005 58.4505 67.4963 55.0005 67.5005H11.4805C12.0083 68.9934 13.417 69.9939 15.0005 70.0005H60.0005C62.0715 70.0005 63.7505 68.3215 63.7505 66.2505V8.75047C63.7439 7.16699 62.7434 5.75829 61.2505 5.23047Z" fill="black"/>
<path d="M20.0001 9.99813V1.76562L8.01758 13.7481H16.2501C18.3211 13.7481 20.0001 12.0692 20.0001 9.99813Z" fill="black"/>
<path d="M58.75 61.25V3.75C58.75 1.67893 57.0711 0 55 0H22.5V10C22.4959 13.4501 19.7001 16.2459 16.25 16.25H6.25V61.25C6.25 63.3211 7.92893 65 10 65H55C57.0711 65 58.75 63.3211 58.75 61.25ZM53.75 46.25H35C34.3096 46.25 33.75 45.6904 33.75 45C33.75 44.3096 34.3096 43.75 35 43.75H53.75C54.4404 43.75 55 44.3096 55 45C55 45.6904 54.4404 46.25 53.75 46.25ZM55 51.25C55 51.9404 54.4404 52.5 53.75 52.5H42.5C41.8096 52.5 41.25 51.9404 41.25 51.25C41.25 50.5596 41.8096 50 42.5 50H53.75C54.4404 50 55 50.5596 55 51.25ZM17.5 50H36.25C36.9404 50 37.5 50.5596 37.5 51.25C37.5 51.9404 36.9404 52.5 36.25 52.5H17.5C16.8096 52.5 16.25 51.9404 16.25 51.25C16.25 50.5596 16.8096 50 17.5 50ZM16.25 45C16.25 44.3096 16.8096 43.75 17.5 43.75H28.75C29.4404 43.75 30 44.3096 30 45C30 45.6904 29.4404 46.25 28.75 46.25H17.5C16.8096 46.25 16.25 45.6904 16.25 45ZM52.5 2.5H55C55.6904 2.5 56.25 3.05964 56.25 3.75C56.25 4.44036 55.6904 5 55 5H52.5C51.8096 5 51.25 4.44036 51.25 3.75C51.25 3.05964 51.8096 2.5 52.5 2.5ZM51.25 26.25C51.9404 26.25 52.5 26.8096 52.5 27.5C52.5 28.1904 51.9404 28.75 51.25 28.75C49.8188 28.75 48.75 29.475 48.75 30.125V33.625C48.75 35.7987 46.5538 37.5 43.75 37.5C43.0596 37.5 42.5 36.9404 42.5 36.25C42.5 35.5596 43.0596 35 43.75 35C45.1813 35 46.25 34.275 46.25 33.625V30.125C46.2682 29.1014 46.7416 28.1392 47.5413 27.5C46.7416 26.8608 46.2682 25.8986 46.25 24.875V21.375C46.25 20.725 45.1813 20 43.75 20C43.0596 20 42.5 19.4404 42.5 18.75C42.5 18.0596 43.0596 17.5 43.75 17.5C46.5538 17.5 48.75 19.2013 48.75 21.375V24.875C48.75 25.525 49.8188 26.25 51.25 26.25ZM40 2.5H47.5C48.1904 2.5 48.75 3.05964 48.75 3.75C48.75 4.44036 48.1904 5 47.5 5H40C39.3096 5 38.75 4.44036 38.75 3.75C38.75 3.05964 39.3096 2.5 40 2.5ZM38.75 30C39.4404 30 40 30.5596 40 31.25C40 31.9404 39.4404 32.5 38.75 32.5C38.0596 32.5 37.5 31.9404 37.5 31.25C37.5 30.5596 38.0596 30 38.75 30ZM33.75 30C34.4404 30 35 30.5596 35 31.25C35 31.9404 34.4404 32.5 33.75 32.5C33.0596 32.5 32.5 31.9404 32.5 31.25C32.5 30.5596 33.0596 30 33.75 30ZM28.75 30C29.4404 30 30 30.5596 30 31.25C30 31.9404 29.4404 32.5 28.75 32.5C28.0596 32.5 27.5 31.9404 27.5 31.25C27.5 30.5596 28.0596 30 28.75 30ZM12.5 58.75H11.25C10.5596 58.75 10 58.1904 10 57.5C10 56.8096 10.5596 56.25 11.25 56.25H12.5C13.1904 56.25 13.75 56.8096 13.75 57.5C13.75 58.1904 13.1904 58.75 12.5 58.75ZM12.5 52.5H11.25C10.5596 52.5 10 51.9404 10 51.25C10 50.5596 10.5596 50 11.25 50H12.5C13.1904 50 13.75 50.5596 13.75 51.25C13.75 51.9404 13.1904 52.5 12.5 52.5ZM12.5 46.25H11.25C10.5596 46.25 10 45.6904 10 45C10 44.3096 10.5596 43.75 11.25 43.75H12.5C13.1904 43.75 13.75 44.3096 13.75 45C13.75 45.6904 13.1904 46.25 12.5 46.25ZM15 27.5C15 26.8096 15.5596 26.25 16.25 26.25C17.6813 26.25 18.75 25.525 18.75 24.875V21.375C18.75 19.2013 20.9463 17.5 23.75 17.5C24.4404 17.5 25 18.0596 25 18.75C25 19.4404 24.4404 20 23.75 20C22.3188 20 21.25 20.725 21.25 21.375V24.875C21.2318 25.8986 20.7585 26.8608 19.9588 27.5C20.7585 28.1392 21.2318 29.1014 21.25 30.125V33.625C21.25 34.275 22.3188 35 23.75 35C24.4404 35 25 35.5596 25 36.25C25 36.9404 24.4404 37.5 23.75 37.5C20.9463 37.5 18.75 35.7987 18.75 33.625V30.125C18.75 29.475 17.6813 28.75 16.25 28.75C15.5596 28.75 15 28.1904 15 27.5ZM28.75 58.75H17.5C16.8096 58.75 16.25 58.1904 16.25 57.5C16.25 56.8096 16.8096 56.25 17.5 56.25H28.75C29.4404 56.25 30 56.8096 30 57.5C30 58.1904 29.4404 58.75 28.75 58.75ZM53.75 58.75H35C34.3096 58.75 33.75 58.1904 33.75 57.5C33.75 56.8096 34.3096 56.25 35 56.25H53.75C54.4404 56.25 55 56.8096 55 57.5C55 58.1904 54.4404 58.75 53.75 58.75Z" fill="black"/>
</g>
<defs>
<clipPath id="clip0_2656_6995">
<rect width="70" height="70" fill="white"/>
</clipPath>
</defs>
</svg>
