<svg width="20" height="20" viewBox="0 0 20 20" fill="none" xmlns="http://www.w3.org/2000/svg">
<path d="M10 20C15.5228 20 20 15.5228 20 10C20 4.47715 15.5228 0 10 0C4.47715 0 0 4.47715 0 10C0 15.5228 4.47715 20 10 20Z" fill="black"/>
<path d="M15.2523 6.21328L16.25 5.25987V5.05078H12.7943L10.3318 11.1792L7.53068 5.05078H3.90795V5.25987L5.07273 6.66214C5.12833 6.71352 5.17123 6.77712 5.19805 6.84792C5.22487 6.91871 5.23488 6.99478 5.22727 7.0701V12.5815C5.24466 12.6796 5.23848 12.7804 5.20924 12.8756C5.18 12.9708 5.12853 13.0578 5.05909 13.1292L3.75 14.719V14.9258H7.47159V14.7167L6.15909 13.1258C6.08893 13.0545 6.03613 12.968 6.0048 12.873C5.97346 12.778 5.96443 12.6771 5.97841 12.5781V7.81442L9.24432 14.9281H9.625L12.433 7.81442V13.4815C12.433 13.6303 12.433 13.661 12.3352 13.7599L11.325 14.7371V14.9462H16.2273V14.7371L15.2534 13.7837C15.2109 13.7521 15.1779 13.7094 15.1578 13.6604C15.1378 13.6113 15.1316 13.5577 15.1398 13.5053V6.49169C15.1314 6.43933 15.1376 6.38568 15.1577 6.33659C15.1777 6.2875 15.2108 6.24485 15.2534 6.21328H15.2523Z" fill="white"/>
</svg>
