<svg width="70" height="70" viewBox="0 0 70 70" fill="none" xmlns="http://www.w3.org/2000/svg">
<g clip-path="url(#clip0_2661_8173)">
<path d="M59.1383 63.9639H52.701C52.5426 63.9639 52.3856 63.9328 52.2392 63.8721C52.0928 63.8115 51.9597 63.7226 51.8477 63.6105C51.7356 63.4985 51.6467 63.3654 51.5861 63.219C51.5254 63.0726 51.4943 62.9156 51.4943 62.7572V54.309C51.4917 54.1488 51.5209 53.9897 51.5804 53.841C51.6399 53.6922 51.7284 53.5568 51.8407 53.4426C51.953 53.3284 52.087 53.2377 52.2347 53.1758C52.3824 53.1139 52.541 53.082 52.7012 53.082C52.8614 53.082 53.02 53.1139 53.1677 53.1758C53.3155 53.2377 53.4494 53.3284 53.5617 53.4426C53.6741 53.5568 53.7625 53.6922 53.822 53.841C53.8815 53.9897 53.9108 54.1488 53.9081 54.309V61.5501H59.1364C59.2965 61.5474 59.4556 61.5767 59.6044 61.6362C59.7531 61.6957 59.8885 61.7841 60.0027 61.8965C60.1169 62.0088 60.2076 62.1427 60.2695 62.2905C60.3314 62.4382 60.3633 62.5968 60.3633 62.757C60.3633 62.9172 60.3314 63.0758 60.2695 63.2235C60.2076 63.3712 60.1169 63.5052 60.0027 63.6175C59.8885 63.7298 59.7531 63.8183 59.6044 63.8778C59.4556 63.9373 59.2965 63.9665 59.1364 63.9639H59.1383Z" fill="black"/>
<path d="M39.8264 63.9639C39.6679 63.9639 39.5109 63.9328 39.3645 63.8721C39.218 63.8115 39.085 63.7226 38.9729 63.6106C38.8608 63.4985 38.7719 63.3655 38.7112 63.219C38.6505 63.0726 38.6193 62.9157 38.6193 62.7572V54.309C38.6167 54.1488 38.6459 53.9897 38.7054 53.841C38.7649 53.6922 38.8534 53.5568 38.9657 53.4426C39.078 53.3284 39.212 53.2377 39.3597 53.1758C39.5074 53.1139 39.666 53.082 39.8262 53.082C39.9864 53.082 40.145 53.1139 40.2927 53.1758C40.4405 53.2377 40.5744 53.3284 40.6867 53.4426C40.7991 53.5568 40.8875 53.6922 40.947 53.841C41.0065 53.9897 41.0358 54.1488 41.0331 54.309V62.7572C41.0331 63.0772 40.906 63.3841 40.6797 63.6105C40.4534 63.8368 40.1464 63.9639 39.8264 63.9639V63.9639Z" fill="black"/>
<path d="M28.9658 67.5881H20.5173C20.2006 67.5829 19.8987 67.4534 19.6766 67.2276C19.4545 67.0019 19.3301 66.6979 19.3301 66.3812C19.3301 66.0645 19.4545 65.7605 19.6766 65.5347C19.8987 65.3089 20.2006 65.1795 20.5173 65.1743H27.7587V53.1052C27.7639 52.7885 27.8934 52.4866 28.1192 52.2645C28.3449 52.0424 28.6489 51.918 28.9656 51.918C29.2823 51.918 29.5863 52.0424 29.8121 52.2645C30.0379 52.4866 30.1673 52.7885 30.1726 53.1052V66.381C30.1726 66.7011 30.0454 67.0081 29.8191 67.2344C29.5928 67.4608 29.2859 67.588 28.9658 67.5881V67.5881Z" fill="black"/>
<path d="M26.9542 16.8972C26.6342 16.8972 26.3273 16.77 26.1009 16.5437C25.8746 16.3174 25.7475 16.0105 25.7475 15.6904V8.44897H20.5173C20.2006 8.44376 19.8987 8.31431 19.6766 8.08854C19.4545 7.86277 19.3301 7.55876 19.3301 7.24206C19.3301 6.92537 19.4545 6.62136 19.6766 6.39559C19.8987 6.16981 20.2006 6.04037 20.5173 6.03516H26.9546C27.2746 6.03533 27.5814 6.16258 27.8077 6.38893C28.0339 6.61528 28.161 6.92221 28.161 7.24223V15.6904C28.161 16.0105 28.0338 16.3174 27.8075 16.5437C27.5812 16.77 27.2743 16.8972 26.9542 16.8972V16.8972Z" fill="black"/>
<path d="M39.8264 16.8975C39.6679 16.8975 39.5109 16.8664 39.3645 16.8057C39.218 16.7451 39.085 16.6562 38.9729 16.5442C38.8608 16.4321 38.7719 16.2991 38.7112 16.1526C38.6505 16.0062 38.6193 15.8492 38.6193 15.6907V7.24256C38.6167 7.08239 38.6459 6.9233 38.7054 6.77457C38.7649 6.62583 38.8534 6.49042 38.9657 6.37622C39.078 6.26202 39.212 6.17133 39.3597 6.10942C39.5074 6.04751 39.666 6.01562 39.8262 6.01562C39.9864 6.01562 40.145 6.04751 40.2927 6.10942C40.4405 6.17133 40.5744 6.26202 40.6867 6.37622C40.7991 6.49042 40.8875 6.62583 40.947 6.77457C41.0065 6.9233 41.0358 7.08239 41.0331 7.24256V15.6907C41.0331 16.0108 40.906 16.3177 40.6797 16.544C40.4534 16.7704 40.1464 16.8975 39.8264 16.8975V16.8975Z" fill="black"/>
<path d="M50.6895 18.1032C50.3694 18.1032 50.0623 17.976 49.836 17.7497C49.6096 17.5233 49.4824 17.2163 49.4824 16.8961V3.62097C49.4825 3.30089 49.6097 2.99395 49.8361 2.76765C50.0624 2.54135 50.3694 2.41423 50.6895 2.41423H59.138C59.2982 2.41159 59.4573 2.44086 59.606 2.50033C59.7547 2.5598 59.8902 2.64828 60.0044 2.76061C60.1185 2.87295 60.2092 3.00689 60.2711 3.15462C60.3331 3.30236 60.3649 3.46095 60.3649 3.62113C60.3649 3.78132 60.3331 3.9399 60.2711 4.08764C60.2092 4.23538 60.1185 4.36932 60.0044 4.48165C59.8902 4.59399 59.7547 4.68247 59.606 4.74194C59.4573 4.80141 59.2982 4.83068 59.138 4.82804H51.8962V16.8968C51.8962 17.2168 51.769 17.5236 51.5427 17.7499C51.3164 17.9761 51.0095 18.1032 50.6895 18.1032V18.1032Z" fill="black"/>
<path d="M62.7583 66.3778C64.7578 66.3778 66.3788 64.7569 66.3788 62.7573C66.3788 60.7577 64.7578 59.1367 62.7583 59.1367C60.7587 59.1367 59.1377 60.7577 59.1377 62.7573C59.1377 64.7569 60.7587 66.3778 62.7583 66.3778Z" fill="black"/>
<path d="M39.8276 69.9989C41.8272 69.9989 43.4482 68.378 43.4482 66.3784C43.4482 64.3788 41.8272 62.7578 39.8276 62.7578C37.828 62.7578 36.207 64.3788 36.207 66.3784C36.207 68.378 37.828 69.9989 39.8276 69.9989Z" fill="black"/>
<path d="M16.896 69.9989C18.8955 69.9989 20.5165 68.378 20.5165 66.3784C20.5165 64.3788 18.8955 62.7578 16.896 62.7578C14.8964 62.7578 13.2754 64.3788 13.2754 66.3784C13.2754 68.378 14.8964 69.9989 16.896 69.9989Z" fill="black"/>
<path d="M61.551 15.6914H18.103C15.4368 15.6914 13.2754 17.8528 13.2754 20.519V49.4845C13.2754 52.1507 15.4368 54.3121 18.103 54.3121H61.551C64.2173 54.3121 66.3787 52.1507 66.3787 49.4845V20.519C66.3787 17.8528 64.2173 15.6914 61.551 15.6914Z" fill="black"/>
<path d="M66.3791 38.6222V41.036H50.6895C49.496 41.0344 48.3298 40.6793 47.3379 40.0158C46.346 39.3522 45.5728 38.4097 45.1158 37.3073C44.6588 36.2048 44.5386 34.9917 44.7701 33.821C45.0017 32.6503 45.5747 31.5743 46.417 30.7288C46.8293 30.3237 47.2965 29.9784 47.8048 29.7031C47.3193 30.5868 47.0661 31.5792 47.0689 32.5875C47.0694 34.1878 47.7053 35.7224 48.8369 36.854C49.9684 37.9856 51.503 38.6216 53.1033 38.6222H66.3791Z" fill="#DDDDDD"/>
<path d="M16.896 10.8622C18.8955 10.8622 20.5165 9.24123 20.5165 7.24165C20.5165 5.24207 18.8955 3.62109 16.896 3.62109C14.8964 3.62109 13.2754 5.24207 13.2754 7.24165C13.2754 9.24123 14.8964 10.8622 16.896 10.8622Z" fill="black"/>
<path d="M39.8276 7.24112C41.8272 7.24112 43.4482 5.62014 43.4482 3.62056C43.4482 1.62098 41.8272 0 39.8276 0C37.828 0 36.207 1.62098 36.207 3.62056C36.207 5.62014 37.828 7.24112 39.8276 7.24112Z" fill="black"/>
<path d="M62.7583 7.24112C64.7578 7.24112 66.3788 5.62014 66.3788 3.62056C66.3788 1.62098 64.7578 0 62.7583 0C60.7587 0 59.1377 1.62098 59.1377 3.62056C59.1377 5.62014 60.7587 7.24112 62.7583 7.24112Z" fill="black"/>
<path d="M65.6674 64.9182C65.3333 65.3683 64.8992 65.7348 64.3995 65.9887C63.8997 66.2426 63.3477 66.377 62.7872 66.3813C62.2266 66.3856 61.6727 66.2598 61.169 66.0136C60.6654 65.7675 60.2257 65.4077 59.8848 64.9628C59.5438 64.5179 59.3107 63.9998 59.204 63.4495C59.0972 62.8992 59.1197 62.3316 59.2696 61.7914C59.4195 61.2512 59.6928 60.7532 60.0679 60.3366C60.443 59.92 60.9097 59.5962 61.4312 59.3906C61.0318 59.9297 60.7899 60.569 60.7324 61.2374C60.6749 61.9059 60.8041 62.5771 61.1056 63.1765C61.4071 63.7758 61.8691 64.2797 62.44 64.6319C63.011 64.9842 63.6685 65.1711 64.3394 65.1718C64.7944 65.1751 65.2456 65.089 65.6674 64.9182V64.9182Z" fill="black"/>
<path d="M42.7357 68.5393C42.4016 68.9894 41.9676 69.3559 41.4678 69.6098C40.968 69.8637 40.4161 69.9981 39.8555 70.0024C39.295 70.0067 38.741 69.8809 38.2374 69.6347C37.7337 69.3886 37.2941 69.0288 36.9531 68.5839C36.6121 68.139 36.3791 67.6209 36.2723 67.0706C36.1656 66.5203 36.188 65.9527 36.3379 65.4125C36.4879 64.8723 36.7611 64.3743 37.1362 63.9577C37.5113 63.5411 37.978 63.2173 38.4995 63.0117C38.1002 63.5508 37.8582 64.1901 37.8008 64.8585C37.7433 65.527 37.8725 66.1982 38.174 66.7975C38.4755 67.3969 38.9374 67.9007 39.5084 68.253C40.0793 68.6053 40.7369 68.7922 41.4078 68.7928C41.8628 68.7964 42.314 68.7103 42.7357 68.5393V68.5393Z" fill="black"/>
<path d="M19.8051 68.5393C19.471 68.9894 19.0369 69.3559 18.5371 69.6098C18.0374 69.8637 17.4854 69.9981 16.9249 70.0024C16.3643 70.0067 15.8104 69.8809 15.3067 69.6347C14.8031 69.3886 14.3634 69.0288 14.0224 68.5839C13.6815 68.139 13.4484 67.6209 13.3417 67.0706C13.2349 66.5203 13.2574 65.9527 13.4073 65.4125C13.5572 64.8723 13.8305 64.3743 14.2056 63.9577C14.5807 63.5411 15.0473 63.2173 15.5689 63.0117C15.1695 63.5508 14.9276 64.1901 14.8701 64.8585C14.8126 65.527 14.9418 66.1982 15.2433 66.7975C15.5448 67.3969 16.0068 67.9007 16.5777 68.253C17.1487 68.6053 17.8062 68.7922 18.4771 68.7928C18.9321 68.7965 19.3834 68.7103 19.8051 68.5393V68.5393Z" fill="black"/>
<path d="M19.8051 9.40256C19.471 9.85272 19.0369 10.2192 18.5371 10.4731C18.0374 10.727 17.4854 10.8614 16.9249 10.8657C16.3643 10.87 15.8104 10.7441 15.3067 10.498C14.8031 10.2518 14.3634 9.89212 14.0224 9.44718C13.6815 9.00223 13.4484 8.4842 13.3417 7.93387C13.2349 7.38354 13.2574 6.81595 13.4073 6.27578C13.5572 5.73561 13.8305 5.23762 14.2056 4.82101C14.5807 4.40441 15.0473 4.08057 15.5689 3.875C15.1695 4.41406 14.9276 5.0534 14.8701 5.72182C14.8126 6.39025 14.9418 7.0615 15.2433 7.66083C15.5448 8.26016 16.0068 8.76403 16.5777 9.11632C17.1487 9.4686 17.8062 9.65548 18.4771 9.65613C18.9321 9.65959 19.3833 9.57343 19.8051 9.40256Z" fill="black"/>
<path d="M42.7364 5.7818C42.4022 6.23187 41.9682 6.59823 41.4684 6.85204C40.9686 7.10585 40.4167 7.24018 39.8562 7.24445C39.2956 7.24873 38.7418 7.12282 38.2382 6.87666C37.7346 6.6305 37.295 6.27079 36.954 5.82587C36.6131 5.38094 36.38 4.86294 36.2733 4.31266C36.1666 3.76237 36.189 3.19481 36.3389 2.65468C36.4888 2.11454 36.762 1.61657 37.137 1.19997C37.5121 0.783371 37.9787 0.459517 38.5002 0.253906C38.1008 0.792962 37.8589 1.43231 37.8014 2.10073C37.7439 2.76915 37.8731 3.44041 38.1746 4.03974C38.4761 4.63907 38.9381 5.14294 39.509 5.49522C40.08 5.84751 40.7375 6.03439 41.4084 6.03504C41.8634 6.03857 42.3146 5.95252 42.7364 5.7818V5.7818Z" fill="black"/>
<path d="M65.667 5.7818C65.3329 6.23187 64.8988 6.59823 64.399 6.85204C63.8993 7.10585 63.3474 7.24018 62.7868 7.24445C62.2263 7.24873 61.6724 7.12282 61.1688 6.87666C60.6652 6.6305 60.2256 6.27079 59.8847 5.82587C59.5437 5.38094 59.3107 4.86294 59.204 4.31266C59.0972 3.76237 59.1197 3.19481 59.2696 2.65468C59.4194 2.11454 59.6927 1.61657 60.0677 1.19997C60.4427 0.783371 60.9094 0.459517 61.4308 0.253906C61.0315 0.792962 60.7895 1.43231 60.7321 2.10073C60.6746 2.76915 60.8038 3.44041 61.1053 4.03974C61.4068 4.63907 61.8687 5.14294 62.4397 5.49522C63.0106 5.84751 63.6682 6.03439 64.3391 6.03504C64.794 6.03854 65.2453 5.95249 65.667 5.7818V5.7818Z" fill="black"/>
<path d="M13.0336 46.2981L13.2764 46.433L13.5192 46.2981L19.001 43.2528C19.0015 43.2525 19.002 43.2522 19.0025 43.252C20.3362 42.5235 21.4505 41.4512 22.2296 40.1465C23.0091 38.8412 23.4245 37.351 23.4329 35.8307V35.828V24.4052V24.1227L23.1908 23.9769C20.198 22.1749 16.7705 21.2227 13.277 21.2227C9.7835 21.2227 6.35606 22.1749 3.36318 23.9769L3.12109 24.1227V24.4052L3.12109 35.828L3.1211 35.8307C3.1293 37.3507 3.54454 38.8408 4.32363 40.1461C5.10238 41.4508 6.21627 42.5231 7.54956 43.2518C7.55013 43.2521 7.5507 43.2524 7.55127 43.2527L13.0336 46.2981Z" fill="black" stroke="white"/>
<path d="M12.0697 37.4137C11.9112 37.4137 11.7543 37.3825 11.6079 37.3218C11.4615 37.2612 11.3285 37.1723 11.2165 37.0602L8.80269 34.6464C8.57636 34.42 8.44922 34.1131 8.44922 33.793C8.44922 33.473 8.57636 33.166 8.80269 32.9397C9.02901 32.7133 9.33597 32.5862 9.65603 32.5862C9.9761 32.5862 10.2831 32.7133 10.5094 32.9397L11.8818 34.3121L15.8932 28.295C16.0708 28.0287 16.347 27.8439 16.6609 27.7812C16.9749 27.7185 17.3009 27.7831 17.5672 27.9607C17.8335 28.1384 18.0183 28.4146 18.081 28.7285C18.1437 29.0425 18.0791 29.3684 17.9015 29.6348L13.0738 36.8756C12.9749 37.0241 12.8442 37.1489 12.6912 37.2408C12.5381 37.3327 12.3666 37.3894 12.189 37.4069C12.1493 37.4113 12.1095 37.4136 12.0697 37.4137V37.4137Z" fill="white"/>
<path d="M66.8803 41.5339H66.3803H50.6906C49.8325 41.5339 48.9828 41.3649 48.1899 41.0365C47.3971 40.7081 46.6768 40.2267 46.07 39.6199C45.4632 39.0131 44.9819 38.2927 44.6535 37.4999C44.3252 36.7071 44.1562 35.8573 44.1562 34.9992L66.8803 41.5339ZM66.8803 41.5339V41.0339M66.8803 41.5339V41.0339M66.8803 41.0339V28.9648V28.4648M66.8803 41.0339V28.4648M66.8803 28.4648H66.3803M66.8803 28.4648H66.3803M66.3803 28.4648H50.6906C48.9576 28.4648 47.2956 29.1533 46.0701 30.3787C44.8447 31.6041 44.1563 33.2662 44.1562 34.9992L66.3803 28.4648Z" fill="black" stroke="white"/>
<path d="M51.8972 37.4136C53.2303 37.4136 54.311 36.3329 54.311 34.9998C54.311 33.6666 53.2303 32.5859 51.8972 32.5859C50.5641 32.5859 49.4834 33.6666 49.4834 34.9998C49.4834 36.3329 50.5641 37.4136 51.8972 37.4136Z" fill="white"/>
</g>
<defs>
<clipPath id="clip0_2661_8173">
<rect width="70" height="70" fill="white"/>
</clipPath>
</defs>
</svg>
