<svg width="70" height="70" viewBox="0 0 70 70" fill="none" xmlns="http://www.w3.org/2000/svg">
<g clip-path="url(#clip0_2656_6981)">
<path d="M31.5231 39.1169C32.9372 38.2334 34.218 37.1558 35.3278 35.9205L39.3288 38.231L42.9719 31.9208L38.9789 29.6154C39.4866 28.0654 39.7852 26.4213 39.8412 24.7171L44.3838 23.9161L43.1181 16.7407L38.5763 17.5416C37.9486 15.986 37.1065 14.5394 36.0853 13.2395L39.0542 9.7017L33.4727 5.01853L30.5063 8.5533C29.0574 7.7769 27.4884 7.19652 25.8348 6.84825V2.23828H18.5487V6.84825C16.8949 7.19652 15.3259 7.7769 13.8769 8.5533L10.9106 5.01853L5.32906 9.70187L8.29765 13.2396C7.27659 14.5396 6.43451 15.9863 5.80683 17.5418L1.26504 16.7408L0 23.9163L4.54196 24.7173C4.59794 26.4217 4.89674 28.0654 5.40442 29.6159L1.4111 31.9212L5.05432 38.2312L9.0555 35.9213C10.165 37.1561 11.4457 38.2339 12.86 39.1174L11.2806 43.4561L18.1275 45.9478L19.7048 41.6149C20.5176 41.7299 21.3476 41.7908 22.1917 41.7908C23.0358 41.7908 23.866 41.7302 24.6789 41.6149L26.2559 45.9481L33.1025 43.4558L31.5231 39.1169ZM22.1914 33.4349C17.0607 33.4349 12.8866 29.2609 12.8866 24.13C12.8866 18.9995 17.0607 14.8252 22.1914 14.8252C27.3221 14.8252 31.4962 18.9995 31.4962 24.13C31.4962 29.2609 27.3223 33.4349 22.1914 33.4349Z" fill="black"/>
<path d="M62.8412 44.5883L59.7003 45.6044C59.1014 44.5634 58.3611 43.6209 57.5087 42.8004L59.264 39.9989L54.8444 37.2298L53.09 40.029C51.9864 39.6216 50.817 39.365 49.6097 39.2818L49.1544 36.0133L43.9886 36.7333L44.444 40.0019C43.3061 40.4118 42.2506 40.979 41.3002 41.6724L38.8484 39.4591L35.3537 43.3308L37.8076 45.5465C37.2123 46.5689 36.7586 47.6776 36.4673 48.843L33.1679 48.7237L32.9792 53.9356L36.2785 54.0553C36.4867 55.2581 36.861 56.3933 37.3744 57.4428L34.7711 59.472L37.9772 63.5855L40.5857 61.5528C41.4944 62.3185 42.5093 62.9558 43.5989 63.443L42.9074 66.6756L48.008 67.7652L48.6986 64.5376C49.2862 64.5392 49.8805 64.4993 50.4787 64.4161C51.0773 64.3328 51.6602 64.2072 52.2246 64.0459L53.7714 66.9622L58.3793 64.5185L56.8309 61.5989C57.7466 60.8325 58.5473 59.9415 59.2125 58.9565L62.2771 60.1991L64.2368 55.3656L61.1781 54.1253C61.3843 52.9764 61.4336 51.7812 61.3058 50.5669L64.4473 49.5502L62.8412 44.5883ZM49.654 58.4919C46.0158 58.9984 42.6438 56.4516 42.1373 52.8139C41.6298 49.1761 44.1772 45.8037 47.8153 45.2974C51.453 44.79 54.8242 47.3373 55.332 50.9755C55.8382 54.6131 53.2916 57.9844 49.654 58.4919Z" fill="black"/>
<path d="M69.8775 26.5134L69.9998 22.3976L67.3952 22.3202C67.2319 21.4131 66.9402 20.5149 66.512 19.6513L68.5575 18.0353L66.0055 14.805L63.9604 16.4203C63.2309 15.8142 62.4241 15.32 61.5677 14.947L62.0964 12.3917L58.0651 11.5568L57.5354 14.1105C56.6064 14.1118 55.6711 14.2437 54.7545 14.5135L53.5193 12.2196L49.8938 14.1721L51.129 16.4664C50.3998 17.0824 49.7742 17.7923 49.2613 18.5664L46.8388 17.6021L45.3163 21.4278L47.7408 22.3936C47.5812 23.314 47.5501 24.2582 47.6549 25.2009L45.1801 26.0194L46.4722 29.929L48.947 29.1108C49.4316 29.9441 50.0208 30.681 50.6893 31.3169L49.3205 33.5341L52.8237 35.6976L54.1955 33.4763C55.0787 33.7932 56.005 33.9862 56.945 34.0468L57.3213 36.6292L61.396 36.0342L61.0207 33.4549C61.4555 33.295 61.8847 33.1025 62.3048 32.8762C62.7252 32.6503 63.1221 32.3971 63.4951 32.1225L65.4417 33.8557L68.1801 30.7811L66.2323 29.046C66.6994 28.2271 67.0469 27.3475 67.2689 26.4359L69.8775 26.5134ZM60.0663 28.7188C57.5127 30.0936 54.317 29.1352 52.9428 26.5826C51.5675 24.0296 52.526 20.8332 55.0797 19.4591C57.632 18.0839 60.8275 19.043 62.2029 21.5959C63.5769 24.1491 62.619 27.3438 60.0663 28.7188Z" fill="black"/>
</g>
<defs>
<clipPath id="clip0_2656_6981">
<rect width="70" height="70" fill="white"/>
</clipPath>
</defs>
</svg>
