<svg width="68" height="70" viewBox="0 0 68 70" fill="none" xmlns="http://www.w3.org/2000/svg">
<path d="M8.23883 43.5258C7.97735 43.5258 7.72658 43.422 7.54169 43.2371C7.3568 43.0522 7.25293 42.8014 7.25293 42.5399V26.7593C7.25293 26.4979 7.3568 26.2471 7.54169 26.0622C7.72658 25.8773 7.97735 25.7734 8.23883 25.7734C8.50031 25.7734 8.75107 25.8773 8.93597 26.0622C9.12086 26.2471 9.22473 26.4979 9.22473 26.7593V42.5399C9.22473 42.8014 9.12086 43.0522 8.93597 43.2371C8.75107 43.422 8.50031 43.5258 8.23883 43.5258V43.5258Z" fill="black"/>
<path d="M34.0005 28.8133C33.7391 28.8133 33.4883 28.7095 33.3034 28.5246C33.1185 28.3397 33.0146 28.0889 33.0146 27.8274V15.689C33.0146 15.4275 33.1185 15.1768 33.3034 14.9919C33.4883 14.807 33.7391 14.7031 34.0005 14.7031C34.262 14.7031 34.5128 14.807 34.6977 14.9919C34.8826 15.1768 34.9864 15.4275 34.9864 15.689V27.8297C34.9859 28.0908 34.8817 28.341 34.6969 28.5254C34.5121 28.7098 34.2616 28.8133 34.0005 28.8133V28.8133Z" fill="black"/>
<path d="M34.0005 54.3274C33.7391 54.3274 33.4883 54.2235 33.3034 54.0386C33.1185 53.8537 33.0146 53.603 33.0146 53.3415V42.7242C33.0146 42.4627 33.1185 42.2119 33.3034 42.027C33.4883 41.8422 33.7391 41.7383 34.0005 41.7383C34.262 41.7383 34.5128 41.8422 34.6977 42.027C34.8826 42.2119 34.9864 42.4627 34.9864 42.7242V53.3415C34.9864 53.603 34.8826 53.8537 34.6977 54.0386C34.5128 54.2235 34.262 54.3274 34.0005 54.3274Z" fill="black"/>
<path d="M59.7613 43.1026C59.4998 43.1026 59.249 42.9988 59.0642 42.8139C58.8793 42.629 58.7754 42.3782 58.7754 42.1167V27.1812C58.7754 26.9197 58.8793 26.669 59.0642 26.4841C59.249 26.2992 59.4998 26.1953 59.7613 26.1953C60.0228 26.1953 60.2735 26.2992 60.4584 26.4841C60.6433 26.669 60.7472 26.9197 60.7472 27.1812V42.1167C60.7472 42.3782 60.6433 42.629 60.4584 42.8139C60.2735 42.9988 60.0228 43.1026 59.7613 43.1026Z" fill="black"/>
<path d="M52.3466 20.9797C52.1618 20.9797 51.9808 20.9276 51.8243 20.8293L40.3828 13.6655C40.273 13.5968 40.1779 13.5071 40.1028 13.4017C40.0277 13.2962 39.9741 13.177 39.945 13.0508C39.8864 12.796 39.9314 12.5283 40.0701 12.3066C40.2089 12.085 40.43 11.9275 40.6848 11.8689C40.9396 11.8102 41.2073 11.8552 41.429 11.994L52.8733 19.1583C53.0547 19.272 53.1942 19.4416 53.2707 19.6416C53.3472 19.8415 53.3565 20.0609 53.2973 20.2666C53.238 20.4724 53.1134 20.6532 52.9423 20.7819C52.7712 20.9105 52.5629 20.98 52.3488 20.9797H52.3466Z" fill="black"/>
<path d="M41.2745 62.5174C41.0627 62.5177 40.8564 62.4498 40.6862 62.3237C40.516 62.1977 40.3909 62.0201 40.3295 61.8174C40.2681 61.6147 40.2735 61.3976 40.3451 61.1983C40.4167 60.9989 40.5506 60.828 40.7269 60.7106L52.5447 52.8409C52.7624 52.696 53.0288 52.6436 53.2851 52.6951C53.5415 52.7466 53.7669 52.8978 53.9118 53.1155C54.0566 53.3332 54.1091 53.5996 54.0576 53.8559C54.0061 54.1123 53.8548 54.3377 53.6371 54.4826L41.8198 62.3523C41.6584 62.46 41.4686 62.5175 41.2745 62.5174V62.5174Z" fill="black"/>
<path d="M15.3473 21.1736C15.1332 21.1738 14.9249 21.1044 14.7538 20.9757C14.5827 20.8471 14.4581 20.6663 14.3989 20.4605C14.3396 20.2548 14.3489 20.0354 14.4254 19.8355C14.5019 19.6355 14.6414 19.4659 14.8228 19.3522L27.1545 11.6307C27.2642 11.562 27.3864 11.5156 27.5141 11.4941C27.6418 11.4726 27.7725 11.4765 27.8986 11.5056C28.0248 11.5346 28.1441 11.5882 28.2495 11.6633C28.355 11.7384 28.4446 11.8336 28.5133 11.9433C28.582 12.0531 28.6284 12.1753 28.6499 12.303C28.6713 12.4307 28.6674 12.5613 28.6384 12.6875C28.6094 12.8137 28.5558 12.9329 28.4807 13.0384C28.4055 13.1439 28.3104 13.2335 28.2006 13.3022L15.869 21.0232C15.7127 21.1214 15.5319 21.1735 15.3473 21.1736V21.1736Z" fill="black"/>
<path d="M26.7252 62.5174C26.5311 62.5175 26.3413 62.46 26.1799 62.3523L14.3626 54.4826C14.2548 54.4108 14.1622 54.3186 14.0901 54.2111C14.0179 54.1035 13.9677 53.9829 13.9422 53.8559C13.9167 53.729 13.9164 53.5983 13.9414 53.4712C13.9664 53.3442 14.0162 53.2233 14.088 53.1155C14.1597 53.0077 14.2519 52.9151 14.3595 52.843C14.467 52.7709 14.5877 52.7206 14.7146 52.6951C14.8415 52.6696 14.9723 52.6693 15.0993 52.6944C15.2263 52.7194 15.3472 52.7692 15.455 52.8409L27.2728 60.7106C27.4492 60.8279 27.583 60.9989 27.6546 61.1983C27.7262 61.3976 27.7317 61.6147 27.6702 61.8174C27.6088 62.0201 27.4837 62.1976 27.3135 62.3237C27.1433 62.4498 26.937 62.5177 26.7252 62.5174V62.5174Z" fill="black"/>
<path d="M40.9074 32.6354C40.6947 32.6358 40.4876 32.5673 40.317 32.4403C40.1464 32.3133 40.0215 32.1345 39.9608 31.9306C39.9002 31.7268 39.9071 31.5088 39.9805 31.3092C40.054 31.1095 40.19 30.939 40.3683 30.8231L51.6616 23.4722C51.8808 23.3295 52.1477 23.2797 52.4036 23.3338C52.6595 23.3879 52.8834 23.5415 53.0261 23.7606C53.1688 23.9798 53.2186 24.2467 53.1645 24.5026C53.1104 24.7585 52.9569 24.9824 52.7377 25.1251L41.4443 32.476C41.2846 32.58 41.0981 32.6354 40.9074 32.6354V32.6354Z" fill="black"/>
<path d="M51.7498 46.7046C51.5469 46.7047 51.3489 46.642 51.1831 46.5249L41.6711 39.8275C41.4591 39.6762 41.3155 39.4472 41.2718 39.1904C41.2281 38.9336 41.2878 38.67 41.4378 38.4571C41.5878 38.2442 41.816 38.0993 42.0726 38.054C42.3291 38.0088 42.5931 38.0669 42.8069 38.2157L52.3188 44.9136C52.4902 45.0343 52.6187 45.2064 52.6856 45.405C52.7525 45.6037 52.7544 45.8184 52.691 46.0182C52.6276 46.218 52.5021 46.3923 52.3329 46.5159C52.1636 46.6396 51.9594 46.706 51.7498 46.7057V46.7046Z" fill="black"/>
<path d="M27.4084 32.8429C27.2177 32.8429 27.0312 32.7875 26.8715 32.6835L14.0497 24.34C13.9412 24.2693 13.8476 24.178 13.7744 24.0712C13.7011 23.9644 13.6497 23.8442 13.6229 23.7175C13.5961 23.5908 13.5945 23.46 13.6183 23.3327C13.642 23.2054 13.6906 23.084 13.7613 22.9755C13.8319 22.867 13.9232 22.7734 14.0301 22.7002C14.1369 22.6269 14.2571 22.5755 14.3838 22.5487C14.5105 22.5219 14.6412 22.5203 14.7685 22.5441C14.8958 22.5678 15.0172 22.6164 15.1257 22.687L27.9475 31.0306C28.1258 31.1465 28.2618 31.317 28.3352 31.5167C28.4087 31.7163 28.4156 31.9343 28.3549 32.1381C28.2943 32.342 28.1693 32.5208 27.9988 32.6478C27.8282 32.7748 27.6211 32.8433 27.4084 32.8429V32.8429Z" fill="black"/>
<path d="M15.63 47.1424C15.4204 47.1427 15.2162 47.0762 15.0469 46.9526C14.8777 46.829 14.7522 46.6546 14.6888 46.4548C14.6254 46.2551 14.6273 46.0403 14.6942 45.8417C14.7611 45.6431 14.8896 45.4709 15.061 45.3503L26.1594 37.5358C26.3731 37.385 26.638 37.3253 26.8957 37.3699C27.1535 37.4144 27.383 37.5595 27.5337 37.7732C27.6845 37.987 27.7442 38.2519 27.6996 38.5096C27.6551 38.7673 27.51 38.9968 27.2963 39.1476L16.1979 46.9621C16.0318 47.0796 15.8334 47.1426 15.63 47.1424V47.1424Z" fill="black"/>
<path d="M34 43.5179L25.7607 39.0206V30.7812L34 35.2786V43.5179Z" fill="#444444"/>
<path d="M34 43.5179L42.2393 39.0206V30.7812L34 35.2786V43.5179Z" fill="black"/>
<path d="M25.7607 30.7813L34 26.0625L42.2394 30.7813L34 35.2787L25.7607 30.7813Z" fill="black"/>
<path d="M8.2393 28.4281L0 23.9307V15.6914L8.2393 20.1888V28.4281Z" fill="#444444"/>
<path d="M8.23926 28.4281L16.4786 23.9307V15.6914L8.23926 20.1888V28.4281Z" fill="black"/>
<path d="M0 15.6915L8.2393 10.9727L16.4786 15.6915L8.2393 20.1888L0 15.6915Z" fill="black"/>
<path d="M8.2393 58.3304L0 53.8331V45.5938L8.2393 50.0911V58.3304Z" fill="#444444"/>
<path d="M8.23926 58.3304L16.4786 53.8331V45.5938L8.23926 50.0911V58.3304Z" fill="black"/>
<path d="M0 45.5938L8.2393 40.875L16.4786 45.5938L8.2393 50.0912L0 45.5938Z" fill="black"/>
<path d="M59.7608 28.4281L51.5215 23.9307V15.6914L59.7608 20.1888V28.4281Z" fill="#444444"/>
<path d="M59.7607 28.4281L68 23.9307V15.6914L59.7607 20.1888V28.4281Z" fill="black"/>
<path d="M51.5215 15.6915L59.7608 10.9727L68.0001 15.6915L59.7608 20.1888L51.5215 15.6915Z" fill="black"/>
<path d="M59.7608 58.3304L51.5215 53.8331V45.5938L59.7608 50.0911V58.3304Z" fill="#444444"/>
<path d="M59.7607 58.3304L68 53.8331V45.5938L59.7607 50.0911V58.3304Z" fill="black"/>
<path d="M51.5215 45.5938L59.7608 40.875L68.0001 45.5938L59.7608 50.0912L51.5215 45.5938Z" fill="black"/>
<path d="M34 17.456L25.7607 12.9581V4.71875L34 9.21671V17.456Z" fill="#444444"/>
<path d="M34 17.456L42.2393 12.9581V4.71875L34 9.21671V17.456Z" fill="black"/>
<path d="M25.7607 4.7188L34 0L42.2394 4.7188L34 9.21675L25.7607 4.7188Z" fill="black"/>
<path d="M34 69.999L25.7607 65.501V57.2617L34 61.7597V69.999Z" fill="#444444"/>
<path d="M34 69.999L42.2393 65.501V57.2617L34 61.7597V69.999Z" fill="black"/>
<path d="M25.7607 57.2618L34 52.543L42.2394 57.2618L34 61.7597L25.7607 57.2618Z" fill="black"/>
</svg>
