<svg width="74" height="70" viewBox="0 0 74 70" fill="none" xmlns="http://www.w3.org/2000/svg">
<path d="M37.1745 6.94558L38.4847 1.69258L37.4466 2.38505C37.3127 2.4744 37.1625 2.5365 37.0046 2.56779C36.8467 2.59908 36.6842 2.59896 36.5263 2.56744C36.3684 2.53591 36.2183 2.47359 36.0846 2.38405C35.9508 2.2945 35.836 2.17948 35.7467 2.04556L34.385 0L32.9241 2.49904C32.7695 2.76389 32.5212 2.96117 32.2283 3.05193C31.9354 3.14269 31.619 3.12034 31.3418 2.98928L30.0059 2.35687L31.3761 7.83783L37.1745 6.94558Z" fill="black"/>
<path d="M39.2203 25.879C39.5453 25.879 39.8571 25.7498 40.0869 25.52C40.3167 25.2901 40.4459 24.9784 40.4459 24.6533C40.4459 24.3283 40.3167 24.0165 40.0869 23.7867C39.8571 23.5569 39.5453 23.4277 39.2203 23.4277H37.9946V20.9765H41.6715C41.9965 20.9765 42.3083 20.8474 42.5381 20.6175C42.768 20.3877 42.8971 20.0759 42.8971 19.7509C42.8971 19.4258 42.768 19.1141 42.5381 18.8842C42.3083 18.6544 41.9965 18.5252 41.6715 18.5252H37.9946V16.074H41.6715C41.9965 16.074 42.3083 15.9449 42.5381 15.715C42.768 15.4852 42.8971 15.1734 42.8971 14.8484C42.8971 14.5233 42.768 14.2116 42.5381 13.9817C42.3083 13.7519 41.9965 13.6228 41.6715 13.6228H37.9946V11.1715H41.6715C41.8324 11.1766 41.9928 11.1499 42.1435 11.093C42.2941 11.0361 42.432 10.9501 42.5494 10.8399C42.6668 10.7296 42.7614 10.5974 42.8276 10.4506C42.8939 10.3039 42.9307 10.1455 42.9357 9.98452C42.9408 9.82357 42.9141 9.6632 42.8572 9.51256C42.8003 9.36192 42.7143 9.22397 42.604 9.10657C42.4938 8.98918 42.3616 8.89464 42.2148 8.82837C42.068 8.76209 41.9097 8.72537 41.7487 8.7203L25.9247 11.1568L25.5571 8.735L28.9483 8.21289L28.3037 5.65625L19.6104 9.51695V22.6703L26.0277 25.879H39.2203Z" fill="black"/>
<path d="M42.8971 24.6538C42.8971 25.6289 42.5097 26.5642 41.8201 27.2537C41.1306 27.9432 40.1954 28.3306 39.2202 28.3306H33.0921C33.0921 28.6557 33.2212 28.9674 33.4511 29.1973C33.6809 29.4271 33.9927 29.5562 34.3177 29.5562C35.184 29.5546 36.0229 29.8596 36.6859 30.4172C37.3489 30.9749 37.7931 31.7491 37.9399 32.6029C38.0867 33.4567 37.9266 34.3349 37.488 35.0819C37.0493 35.8289 36.3604 36.3966 35.5433 36.6844V39.3612H33.0921V36.6844C32.3777 36.4319 31.7587 35.9647 31.32 35.3469C30.8812 34.7291 30.644 33.9909 30.6409 33.2331H33.0921C33.0921 33.4755 33.164 33.7125 33.2987 33.914C33.4333 34.1156 33.6247 34.2727 33.8487 34.3654C34.0727 34.4582 34.3191 34.4825 34.5568 34.4352C34.7946 34.3879 35.013 34.2711 35.1844 34.0997C35.3558 33.9283 35.4725 33.71 35.5198 33.4722C35.5671 33.2345 35.5428 32.988 35.45 32.7641C35.3573 32.5401 35.2002 32.3487 34.9986 32.214C34.7971 32.0794 34.5601 32.0075 34.3177 32.0075C33.3426 32.0075 32.4073 31.6201 31.7178 30.9306C31.0282 30.241 30.6409 29.3058 30.6409 28.3306H25.7384C25.5483 28.3308 25.3607 28.2867 25.1905 28.2019L22.5873 26.9003C22.048 28.6204 21.9213 30.4434 22.2177 32.2216C22.5141 33.9997 23.2251 35.6831 24.2932 37.1353C25.3613 38.5874 26.7565 39.7676 28.3656 40.5802C29.9748 41.3928 31.7527 41.8149 33.5554 41.8124H35.0801C37.2854 41.8131 39.4444 41.1793 41.2993 39.9865C43.1543 38.7938 44.6269 37.0926 45.5415 35.0858C46.456 33.079 46.7739 30.8515 46.4571 28.669C46.1403 26.4865 45.2023 24.4413 43.755 22.7773C43.4157 23.0128 43.039 23.1894 42.6409 23.2995C42.8113 23.7306 42.8982 24.1902 42.8971 24.6538V24.6538Z" fill="black"/>
<path d="M0 8.71875H7.35371V23.4262H0V8.71875Z" fill="black"/>
<path d="M9.80469 7.49219H17.1584V24.6509H9.80469V7.49219Z" fill="black"/>
<path d="M68.6348 54.0664H73.5372V68.7738H68.6348V54.0664Z" fill="black"/>
<path d="M58.8301 52.8398H66.1838V69.9985H58.8301V52.8398Z" fill="black"/>
<path d="M48.4479 52.8431H46.8632C46.268 52.8419 45.6843 53.0073 45.1783 53.3208C44.6723 53.6342 44.2641 54.0831 44.0002 54.6166C43.8979 54.8213 43.7404 54.9933 43.5454 55.113C43.3505 55.2328 43.1259 55.2956 42.8971 55.2944H34.3178C33.9927 55.2944 33.681 55.4235 33.4511 55.6534C33.2213 55.8832 33.0922 56.195 33.0922 56.52C33.0922 56.8451 33.2213 57.1568 33.4511 57.3867C33.681 57.6165 33.9927 57.7456 34.3178 57.7456H42.8971V60.1969H34.3178C33.4918 60.1946 32.6906 59.9143 32.0434 59.4012C31.3961 58.888 30.9405 58.1719 30.75 57.3681L23.5054 51.2498C23.4579 51.2097 23.4132 51.1663 23.3718 51.1199C23.084 50.7909 22.7026 50.5576 22.2787 50.4512C21.8547 50.3449 21.4084 50.3705 20.9994 50.5247C20.5904 50.6789 20.2382 50.9543 19.99 51.3141C19.7417 51.6739 19.6093 52.1009 19.6104 52.538V52.7745C19.6105 53.305 19.8069 53.8167 20.1619 54.2109L27.8661 62.7707C28.5257 63.5029 29.3317 64.0886 30.232 64.4897C31.1322 64.8909 32.1066 65.0985 33.0922 65.0993L56.3789 66.2625V58.0594C55.911 57.1704 55.3938 56.3083 54.8297 55.477C53.9925 54.6384 52.9976 53.974 51.9022 53.5219C50.8069 53.0698 49.6329 52.8392 48.4479 52.8431V52.8431Z" fill="black"/>
</svg>
