<svg width="50" height="50" viewBox="0 0 50 50" fill="none" xmlns="http://www.w3.org/2000/svg">
<path d="M6.28685 15.857C7.1776 14.0415 8.32862 12.3658 9.70352 10.8828L7.89185 9.07031C4.05668 13.1874 1.84467 18.5557 1.66602 24.1795L4.17518 24.1661C4.25403 22.1235 4.64147 20.1045 5.32435 18.1778C5.18204 17.9723 5.09358 17.7343 5.06707 17.4857C5.04057 17.2371 5.07686 16.9858 5.17264 16.7549C5.26841 16.524 5.4206 16.3207 5.61526 16.1639C5.80992 16.007 6.04084 15.9015 6.28685 15.857V15.857Z" fill="#111111"/>
<path d="M7.59155 18.4234L19.2124 24.6734C19.3894 23.2214 20.0035 21.8576 20.9732 20.7626L8.12905 17.1009C7.95908 17.0532 7.77751 17.0698 7.61899 17.1475C7.46048 17.2252 7.33613 17.3586 7.26966 17.5221C7.20319 17.6856 7.19927 17.8679 7.25864 18.0342C7.31802 18.2004 7.43652 18.339 7.59155 18.4234V18.4234Z" fill="#111111"/>
<path d="M22.966 27.6278L23.7243 26.5103C23.8652 26.3015 24.0551 26.1305 24.2775 26.0122C24.4999 25.894 24.7479 25.8321 24.9998 25.8321C25.2516 25.8321 25.4997 25.894 25.722 26.0122C25.9444 26.1305 26.1344 26.3015 26.2752 26.5103L27.0327 27.627C27.5842 27.2024 27.989 26.6159 28.1903 25.9496C28.3916 25.2833 28.3792 24.5707 28.1549 23.9117C27.9307 23.2528 27.5058 22.6806 26.9399 22.2754C26.374 21.8702 25.6954 21.6523 24.9993 21.6523C24.3033 21.6523 23.6247 21.8702 23.0588 22.2754C22.4929 22.6806 22.068 23.2528 21.8438 23.9117C21.6195 24.5707 21.6071 25.2833 21.8084 25.9496C22.0097 26.6159 22.4145 27.2024 22.966 27.627V27.6278Z" fill="#111111"/>
<path d="M12.504 48.3327H37.494C37.6453 48.3326 37.7937 48.2913 37.9233 48.2132C38.0529 48.1351 38.1588 48.0232 38.2297 47.8895C38.3005 47.7558 38.3336 47.6053 38.3254 47.4543C38.3172 47.3032 38.268 47.1572 38.1831 47.0319L25.689 28.6161C25.6126 28.5033 25.5098 28.411 25.3895 28.3472C25.2692 28.2834 25.1351 28.25 24.999 28.25C24.8628 28.25 24.7287 28.2834 24.6084 28.3472C24.4881 28.411 24.3853 28.5033 24.309 28.6161L11.8148 47.0327C11.7301 47.158 11.6811 47.3039 11.6731 47.4549C11.665 47.6058 11.6981 47.7561 11.7689 47.8897C11.8397 48.0233 11.9456 48.1351 12.075 48.2131C12.2045 48.2912 12.3528 48.3325 12.504 48.3327V48.3327ZM24.1656 32.4994C24.1656 32.2784 24.2534 32.0664 24.4097 31.9101C24.566 31.7539 24.778 31.6661 24.999 31.6661C25.22 31.6661 25.4319 31.7539 25.5882 31.9101C25.7445 32.0664 25.8323 32.2784 25.8323 32.4994V41.6661C25.8323 41.8871 25.7445 42.099 25.5882 42.2553C25.4319 42.4116 25.22 42.4994 24.999 42.4994C24.778 42.4994 24.566 42.4116 24.4097 42.2553C24.2534 42.099 24.1656 41.8871 24.1656 41.6661V32.4994ZM24.1656 44.9994C24.1656 44.7784 24.2534 44.5664 24.4097 44.4101C24.566 44.2539 24.778 44.1661 24.999 44.1661C25.22 44.1661 25.4319 44.2539 25.5882 44.4101C25.7445 44.5664 25.8323 44.7784 25.8323 44.9994V45.8327C25.8323 46.0537 25.7445 46.2657 25.5882 46.422C25.4319 46.5783 25.22 46.6661 24.999 46.6661C24.778 46.6661 24.566 46.5783 24.4097 46.422C24.2534 46.2657 24.1656 46.0537 24.1656 45.8327V44.9994Z" fill="#111111"/>
<path d="M48.3228 24.1661C48.1478 18.5473 45.9387 13.183 42.1062 9.07031L40.3262 10.8503C43.6868 14.485 45.6362 19.202 45.822 24.1486L48.3228 24.1661Z" fill="#111111"/>
<path d="M40.9245 7.89667C36.8084 4.07252 31.4476 1.86701 25.832 1.6875V4.1875C30.7824 4.37073 35.5044 6.31691 39.1462 9.675L40.9245 7.89667Z" fill="#111111"/>
<path d="M24.1667 4.19833V1.6875C18.5513 1.86746 13.1906 4.0729 9.07422 7.89667L10.8851 9.7075C14.5201 6.35612 19.2268 4.40383 24.1667 4.19833V4.19833Z" fill="#111111"/>
</svg>
