<svg width="70" height="70" viewBox="0 0 70 70" fill="none" xmlns="http://www.w3.org/2000/svg">
<g clip-path="url(#clip0_2661_8139)">
<path d="M50.7907 64.6172C50.4489 65.1367 49.8883 65.4512 49.2731 65.4512H20.7262C20.111 65.4512 19.5368 65.1367 19.2087 64.6172C18.8805 64.1113 18.8395 63.4824 19.0719 62.9355C19.7692 61.377 21.3278 60.3789 23.0368 60.3789H26.4548V57.3711H43.5583V60.3789H46.9762C48.6852 60.3789 50.2301 61.3906 50.9411 62.9355C51.1735 63.4824 51.1188 64.125 50.7907 64.6172V64.6172Z" fill="black"/>
<path d="M22.791 21.5234C21.8477 25.0371 18.6211 27.6348 14.8203 27.6348C10.2676 27.6211 6.5625 23.9297 6.5625 19.377C6.5625 15.5625 9.16016 12.3496 12.6738 11.4062C12.5781 11.7754 12.6328 11.5293 12.6191 19.377C12.6191 20.5801 13.6035 21.5645 14.8066 21.5645C22.6133 21.5508 22.4082 21.5918 22.791 21.5234Z" fill="black"/>
<path d="M23.0645 19.377C23.0645 19.7734 22.7363 20.1016 22.3398 20.1016H14.8203C14.4238 20.1016 14.0957 19.7734 14.0957 19.377V11.8574C14.0957 11.4473 14.4238 11.1328 14.8203 11.1328C19.373 11.1328 23.0645 14.8242 23.0645 19.377Z" fill="black"/>
<path d="M22.3398 32.0508H7.28711C6.89062 32.0508 6.5625 31.7227 6.5625 31.3262C6.5625 30.9297 6.89062 30.6016 7.28711 30.6016H22.3398C22.7363 30.6016 23.0645 30.9297 23.0645 31.3262C23.0645 31.7227 22.7363 32.0508 22.3398 32.0508Z" fill="black"/>
<path d="M22.3398 36.3437H7.28711C6.89062 36.3437 6.5625 36.0156 6.5625 35.6191C6.5625 35.2227 6.89062 34.8945 7.28711 34.8945H22.3398C22.7363 34.8945 23.0645 35.2227 23.0645 35.6191C23.0645 36.0293 22.7363 36.3437 22.3398 36.3437Z" fill="black"/>
<path d="M22.3398 40.6484H7.28711C6.89062 40.6484 6.5625 40.3203 6.5625 39.9238C6.5625 39.5273 6.89062 39.1992 7.28711 39.1992H22.3398C22.7363 39.1992 23.0645 39.5273 23.0645 39.9238C23.0645 40.3203 22.7363 40.6484 22.3398 40.6484Z" fill="black"/>
<path d="M36.4219 28.5098V39.1875C36.4219 39.9941 35.7656 40.6504 34.959 40.6504H31.9238C31.1172 40.6504 30.4609 39.9941 30.4609 39.1875V28.5098C30.4609 27.7031 31.1035 27.0469 31.9238 27.0469H34.959C35.7656 27.0469 36.4219 27.7031 36.4219 28.5098V28.5098Z" fill="black"/>
<path d="M45.4316 20.9902V39.1875C45.4316 39.9941 44.7754 40.6504 43.9687 40.6504H40.9336C40.127 40.6504 39.4707 39.9941 39.4707 39.1875V20.9902C39.4707 20.1836 40.1133 19.5273 40.9336 19.5273H43.9687C44.7754 19.5273 45.4316 20.1836 45.4316 20.9902V20.9902Z" fill="black"/>
<path d="M54.4277 28.5098V39.1875C54.4277 39.9941 53.7715 40.6504 52.9648 40.6504H49.916C49.1094 40.6504 48.4531 39.9941 48.4531 39.1875V28.5098C48.4531 27.7031 49.1094 27.0469 49.916 27.0469H52.9648C53.7715 27.0469 54.4277 27.7031 54.4277 28.5098V28.5098Z" fill="black"/>
<path d="M63.4375 24.0527V39.1875C63.4375 39.9941 62.7813 40.6504 61.9746 40.6504H58.9258C58.1191 40.6504 57.4629 39.9941 57.4629 39.1875V24.0527C57.4629 23.2461 58.1191 22.5898 58.9258 22.5898H61.9746C62.7813 22.5898 63.4375 23.2461 63.4375 24.0527V24.0527Z" fill="black"/>
<path d="M51.4475 23.2866C51.2425 23.2866 51.0374 23.1909 50.887 23.0269L42.3831 12.9097L33.9475 21.0581C33.6604 21.3316 33.1956 21.3316 32.9222 21.0444C32.6487 20.7573 32.6487 20.2925 32.9358 20.0191L41.9456 11.3237C42.096 11.187 42.2874 11.105 42.4925 11.1187C42.6975 11.1323 42.8889 11.228 43.012 11.3784L51.5843 21.5777L60.0472 15.603C60.3753 15.3706 60.8264 15.4527 61.0589 15.7808C61.2913 16.1089 61.2093 16.5601 60.8811 16.7925L51.8714 23.1636C51.7483 23.2456 51.5979 23.2866 51.4475 23.2866V23.2866Z" fill="black"/>
<path d="M35 49.1133C34.4531 49.1133 34.002 49.5645 34.002 50.1113C34.002 50.6582 34.4531 51.1094 35 51.1094C35.5469 51.1094 35.998 50.6582 35.998 50.1113C35.998 49.5645 35.5469 49.1133 35 49.1133Z" fill="black"/>
<path d="M66.3496 4.55469H3.65039C1.62695 4.55469 0 6.18164 0 8.19141C0 9.35352 0 55.0586 0 52.2695C0 54.2793 1.62695 55.9199 3.65039 55.9199H66.3633C68.373 55.9199 70.0137 54.2793 70.0137 52.2695C70.0137 46.7051 70.0137 13.7285 70.0137 8.19141C70 6.18164 68.3594 4.55469 66.3496 4.55469V4.55469ZM35 52.5703C33.6465 52.5703 32.5391 51.4629 32.5391 50.1094C32.5391 48.7559 33.6465 47.6484 35 47.6484C36.3535 47.6484 37.4609 48.7559 37.4609 50.1094C37.4609 51.4629 36.3535 52.5703 35 52.5703ZM67.0879 44.2852H2.91211V8.19141C2.91211 7.79492 3.24023 7.4668 3.63672 7.4668H66.3496C66.7461 7.4668 67.0742 7.79492 67.0742 8.19141V44.2852H67.0879Z" fill="black"/>
</g>
<defs>
<clipPath id="clip0_2661_8139">
<rect width="70" height="70" fill="white"/>
</clipPath>
</defs>
</svg>
