<svg width="68" height="70" viewBox="0 0 68 70" fill="none" xmlns="http://www.w3.org/2000/svg">
<path d="M8.23785 43.5258C7.97638 43.5258 7.72561 43.422 7.54072 43.2371C7.35582 43.0522 7.25195 42.8014 7.25195 42.5399V26.7593C7.25195 26.4979 7.35582 26.2471 7.54072 26.0622C7.72561 25.8773 7.97638 25.7734 8.23785 25.7734C8.49933 25.7734 8.7501 25.8773 8.93499 26.0622C9.11988 26.2471 9.22375 26.4979 9.22375 26.7593V42.5399C9.22375 42.8014 9.11988 43.0522 8.93499 43.2371C8.7501 43.422 8.49933 43.5258 8.23785 43.5258V43.5258Z" fill="black"/>
<path d="M33.9996 28.8133C33.7381 28.8133 33.4873 28.7095 33.3024 28.5246C33.1175 28.3397 33.0137 28.0889 33.0137 27.8274V15.689C33.0137 15.4275 33.1175 15.1768 33.3024 14.9919C33.4873 14.807 33.7381 14.7031 33.9996 14.7031C34.261 14.7031 34.5118 14.807 34.6967 14.9919C34.8816 15.1768 34.9855 15.4275 34.9855 15.689V27.8297C34.9849 28.0908 34.8807 28.341 34.6959 28.5254C34.5111 28.7098 34.2607 28.8133 33.9996 28.8133V28.8133Z" fill="black"/>
<path d="M33.9996 54.3274C33.7381 54.3274 33.4873 54.2235 33.3024 54.0386C33.1175 53.8537 33.0137 53.603 33.0137 53.3415V42.7242C33.0137 42.4627 33.1175 42.2119 33.3024 42.027C33.4873 41.8422 33.7381 41.7383 33.9996 41.7383C34.261 41.7383 34.5118 41.8422 34.6967 42.027C34.8816 42.2119 34.9855 42.4627 34.9855 42.7242V53.3415C34.9855 53.603 34.8816 53.8537 34.6967 54.0386C34.5118 54.2235 34.261 54.3274 33.9996 54.3274Z" fill="black"/>
<path d="M59.7613 43.1026C59.4998 43.1026 59.249 42.9988 59.0642 42.8139C58.8793 42.629 58.7754 42.3782 58.7754 42.1167V27.1812C58.7754 26.9197 58.8793 26.669 59.0642 26.4841C59.249 26.2992 59.4998 26.1953 59.7613 26.1953C60.0228 26.1953 60.2735 26.2992 60.4584 26.4841C60.6433 26.669 60.7472 26.9197 60.7472 27.1812V42.1167C60.7472 42.3782 60.6433 42.629 60.4584 42.8139C60.2735 42.9988 60.0228 43.1026 59.7613 43.1026Z" fill="black"/>
<path d="M52.3446 20.9797C52.1598 20.9797 51.9788 20.9276 51.8224 20.8293L40.3808 13.6655C40.2711 13.5968 40.1759 13.5071 40.1008 13.4017C40.0257 13.2962 39.9721 13.177 39.9431 13.0508C39.8844 12.796 39.9294 12.5283 40.0682 12.3066C40.2069 12.085 40.428 11.9275 40.6828 11.8689C40.9377 11.8102 41.2054 11.8552 41.427 11.994L52.8713 19.1583C53.0528 19.272 53.1923 19.4416 53.2687 19.6416C53.3452 19.8415 53.3546 20.0609 53.2953 20.2666C53.2361 20.4724 53.1115 20.6532 52.9404 20.7819C52.7693 20.9105 52.5609 20.98 52.3468 20.9797H52.3446Z" fill="black"/>
<path d="M41.2745 62.5174C41.0627 62.5177 40.8564 62.4498 40.6862 62.3237C40.516 62.1977 40.3909 62.0201 40.3295 61.8174C40.2681 61.6147 40.2735 61.3976 40.3451 61.1983C40.4167 60.9989 40.5506 60.828 40.7269 60.7106L52.5447 52.8409C52.7624 52.696 53.0288 52.6436 53.2851 52.6951C53.5415 52.7466 53.7669 52.8978 53.9118 53.1155C54.0566 53.3332 54.1091 53.5996 54.0576 53.8559C54.0061 54.1123 53.8548 54.3377 53.6371 54.4826L41.8198 62.3523C41.6584 62.46 41.4686 62.5175 41.2745 62.5174V62.5174Z" fill="black"/>
<path d="M15.3464 21.1736C15.1323 21.1738 14.9239 21.1044 14.7528 20.9757C14.5817 20.8471 14.4571 20.6663 14.3979 20.4605C14.3386 20.2548 14.348 20.0354 14.4245 19.8355C14.5009 19.6355 14.6404 19.4659 14.8219 19.3522L27.1535 11.6307C27.2632 11.562 27.3854 11.5156 27.5131 11.4941C27.6408 11.4726 27.7715 11.4765 27.8977 11.5056C28.0238 11.5346 28.1431 11.5882 28.2485 11.6633C28.354 11.7384 28.4436 11.8336 28.5123 11.9433C28.581 12.0531 28.6274 12.1753 28.6489 12.303C28.6704 12.4307 28.6665 12.5613 28.6374 12.6875C28.6084 12.8137 28.5548 12.9329 28.4797 13.0384C28.4046 13.1439 28.3094 13.2335 28.1997 13.3022L15.868 21.0232C15.7117 21.1214 15.5309 21.1735 15.3464 21.1736V21.1736Z" fill="black"/>
<path d="M26.7243 62.5174C26.5301 62.5175 26.3404 62.46 26.1789 62.3523L14.3616 54.4826C14.2538 54.4108 14.1612 54.3186 14.0891 54.2111C14.0169 54.1035 13.9667 53.9829 13.9412 53.8559C13.9157 53.729 13.9154 53.5983 13.9405 53.4712C13.9655 53.3442 14.0153 53.2233 14.087 53.1155C14.1587 53.0077 14.251 52.9151 14.3585 52.843C14.466 52.7709 14.5867 52.7206 14.7136 52.6951C14.8406 52.6696 14.9713 52.6693 15.0983 52.6944C15.2254 52.7194 15.3462 52.7692 15.454 52.8409L27.2718 60.7106C27.4482 60.8279 27.5821 60.9989 27.6536 61.1983C27.7252 61.3976 27.7307 61.6147 27.6693 61.8174C27.6078 62.0201 27.4827 62.1976 27.3125 62.3237C27.1423 62.4498 26.9361 62.5177 26.7243 62.5174V62.5174Z" fill="black"/>
<path d="M40.9055 32.6354C40.6928 32.6358 40.4857 32.5673 40.3151 32.4403C40.1445 32.3133 40.0195 32.1345 39.9589 31.9306C39.8982 31.7268 39.9052 31.5088 39.9786 31.3092C40.052 31.1095 40.188 30.939 40.3663 30.8231L51.6597 23.4722C51.8789 23.3295 52.1458 23.2797 52.4016 23.3338C52.6575 23.3879 52.8815 23.5415 53.0242 23.7606C53.1668 23.9798 53.2166 24.2467 53.1625 24.5026C53.1084 24.7585 52.9549 24.9824 52.7357 25.1251L41.4424 32.476C41.2826 32.58 41.0961 32.6354 40.9055 32.6354V32.6354Z" fill="black"/>
<path d="M51.7498 46.7046C51.5469 46.7047 51.3489 46.642 51.1831 46.5249L41.6711 39.8275C41.4591 39.6762 41.3155 39.4472 41.2718 39.1904C41.2281 38.9336 41.2878 38.67 41.4378 38.4571C41.5878 38.2442 41.816 38.0993 42.0726 38.054C42.3291 38.0088 42.5931 38.0669 42.8069 38.2157L52.3188 44.9136C52.4902 45.0343 52.6187 45.2064 52.6856 45.405C52.7525 45.6037 52.7544 45.8184 52.691 46.0182C52.6276 46.218 52.5021 46.3923 52.3329 46.5159C52.1636 46.6396 51.9594 46.706 51.7498 46.7057V46.7046Z" fill="black"/>
<path d="M27.4084 32.8429C27.2177 32.8429 27.0312 32.7875 26.8715 32.6835L14.0497 24.34C13.9412 24.2693 13.8476 24.178 13.7744 24.0712C13.7011 23.9644 13.6497 23.8442 13.6229 23.7175C13.5961 23.5908 13.5945 23.46 13.6183 23.3327C13.642 23.2054 13.6906 23.084 13.7613 22.9755C13.8319 22.867 13.9232 22.7734 14.0301 22.7002C14.1369 22.6269 14.2571 22.5755 14.3838 22.5487C14.5105 22.5219 14.6412 22.5203 14.7685 22.5441C14.8958 22.5678 15.0172 22.6164 15.1257 22.687L27.9475 31.0306C28.1258 31.1465 28.2618 31.317 28.3352 31.5167C28.4087 31.7163 28.4156 31.9343 28.3549 32.1381C28.2943 32.342 28.1693 32.5208 27.9988 32.6478C27.8282 32.7748 27.6211 32.8433 27.4084 32.8429V32.8429Z" fill="black"/>
<path d="M15.628 47.1424C15.4184 47.1427 15.2142 47.0762 15.045 46.9526C14.8757 46.829 14.7503 46.6546 14.6869 46.4548C14.6234 46.2551 14.6253 46.0403 14.6922 45.8417C14.7592 45.6431 14.8876 45.4709 15.059 45.3503L26.1574 37.5358C26.3712 37.385 26.636 37.3253 26.8938 37.3699C27.1515 37.4144 27.381 37.5595 27.5318 37.7732C27.6825 37.987 27.7422 38.2519 27.6977 38.5096C27.6531 38.7673 27.5081 38.9968 27.2943 39.1476L16.1959 46.9621C16.0299 47.0796 15.8314 47.1426 15.628 47.1424V47.1424Z" fill="black"/>
<path d="M33.9991 43.5179L25.7598 39.0206V30.7812L33.9991 35.2786V43.5179Z" fill="#444444"/>
<path d="M34 43.5179L42.2393 39.0206V30.7812L34 35.2786V43.5179Z" fill="black"/>
<path d="M25.7598 30.7813L33.9991 26.0625L42.2384 30.7813L33.9991 35.2787L25.7598 30.7813Z" fill="black"/>
<path d="M8.2393 28.4281L0 23.9307V15.6914L8.2393 20.1888V28.4281Z" fill="#444444"/>
<path d="M8.24023 28.4281L16.4795 23.9307V15.6914L8.24023 20.1888V28.4281Z" fill="black"/>
<path d="M0 15.6915L8.2393 10.9727L16.4786 15.6915L8.2393 20.1888L0 15.6915Z" fill="black"/>
<path d="M8.2393 58.3304L0 53.8331V45.5938L8.2393 50.0911V58.3304Z" fill="#444444"/>
<path d="M8.24023 58.3304L16.4795 53.8331V45.5938L8.24023 50.0911V58.3304Z" fill="black"/>
<path d="M0 45.5938L8.2393 40.875L16.4786 45.5938L8.2393 50.0912L0 45.5938Z" fill="black"/>
<path d="M59.7608 28.4281L51.5215 23.9307V15.6914L59.7608 20.1888V28.4281Z" fill="#444444"/>
<path d="M59.7598 28.4281L67.9991 23.9307V15.6914L59.7598 20.1888V28.4281Z" fill="black"/>
<path d="M51.5215 15.6915L59.7608 10.9727L68.0001 15.6915L59.7608 20.1888L51.5215 15.6915Z" fill="black"/>
<path d="M59.7608 58.3304L51.5215 53.8331V45.5938L59.7608 50.0911V58.3304Z" fill="#444444"/>
<path d="M59.7598 58.3304L67.9991 53.8331V45.5938L59.7598 50.0911V58.3304Z" fill="black"/>
<path d="M51.5215 45.5938L59.7608 40.875L68.0001 45.5938L59.7608 50.0912L51.5215 45.5938Z" fill="black"/>
<path d="M33.9991 17.456L25.7598 12.9581V4.71875L33.9991 9.21671V17.456Z" fill="#444444"/>
<path d="M34 17.456L42.2393 12.9581V4.71875L34 9.21671V17.456Z" fill="black"/>
<path d="M25.7598 4.7188L33.9991 0L42.2384 4.7188L33.9991 9.21675L25.7598 4.7188Z" fill="black"/>
<path d="M33.9991 69.999L25.7598 65.501V57.2617L33.9991 61.7597V69.999Z" fill="#444444"/>
<path d="M34 69.999L42.2393 65.501V57.2617L34 61.7597V69.999Z" fill="black"/>
<path d="M25.7598 57.2618L33.9991 52.543L42.2384 57.2618L33.9991 61.7597L25.7598 57.2618Z" fill="black"/>
</svg>
