<svg width="70" height="70" viewBox="0 0 70 70" fill="none" xmlns="http://www.w3.org/2000/svg">
<g clip-path="url(#clip0_2661_8072)">
<path d="M38.68 28.8928C38.1518 29.4502 37.4052 29.7438 36.6373 29.6963C36.3716 29.6795 30.0571 29.2454 23.5985 25.7651C17.4953 22.4762 10.1302 15.8026 9.70257 2.68639C9.67906 1.97107 9.9529 1.27818 10.4588 0.772051C11.2304 0 12.136 0 12.5228 0C12.5229 0 12.5229 0 12.5229 0C12.7965 0 19.2283 0.0462108 25.8555 4.01994C29.2957 6.08289 32.1559 8.82533 34.3568 12.1714C37.0154 16.2136 38.7025 21.1386 39.3714 26.8093C39.4613 27.5722 39.208 28.3352 38.68 28.8928Z" fill="black"/>
<path d="M36.4587 24.4532L30.8822 19.0153L29.4117 11.6874C29.2953 11.1066 28.7303 10.7308 28.1493 10.847C27.5686 10.9635 27.1926 11.5288 27.3089 12.1093L28.1627 16.3635L25.0873 13.3644L23.5965 5.93578C23.4801 5.355 22.9148 4.97957 22.3342 5.09537C21.7534 5.21185 21.3774 5.77705 21.4937 6.35769L22.3676 10.7125L15.191 3.71465C14.7666 3.30121 14.0882 3.30996 13.6747 3.73379C13.2612 4.15789 13.2698 4.8367 13.6938 5.25L21.5851 12.9451L16.0802 12.851C15.4886 12.8349 15 13.3127 14.9898 13.9048C14.9798 14.497 15.4515 14.9851 16.0436 14.9953L23.8238 15.1283L27.4845 18.6981L21.8954 18.6028C21.3086 18.5896 20.8152 19.0645 20.805 19.6566C20.795 20.2487 21.2667 20.7368 21.8588 20.7471L29.7231 20.8813L34.9609 25.9889C35.1696 26.1922 35.4396 26.2933 35.7093 26.2933C35.9883 26.2933 36.2669 26.1851 36.4773 25.9696C36.8911 25.5454 36.8827 24.8665 36.4587 24.4532Z" fill="white"/>
<path d="M63.9604 0.808498C63.4323 0.251095 62.6856 -0.0425764 61.9177 0.00500169C61.6521 0.0218181 55.3376 0.4559 48.879 3.93621C43.9159 6.61057 38.1191 11.5231 35.896 20.3177C34.6818 23.8933 32.0069 33.5901 32.6325 48.1903C32.6867 49.4534 33.7277 50.4411 34.98 50.441C35.0139 50.441 35.0481 50.4403 35.0824 50.4388C36.3797 50.3831 37.3864 49.2865 37.3309 47.9889C37.0067 40.4252 37.6295 34.2418 38.432 29.6791C40.2379 29.5756 45.6188 28.9894 51.1359 25.6813C54.5762 23.6184 57.4363 20.8759 59.6372 17.5299C62.2959 13.4877 63.983 8.56264 64.6518 2.89195C64.7418 2.12906 64.4884 1.36604 63.9604 0.808498Z" fill="black"/>
<path d="M60.584 3.73384C60.1703 3.30987 59.4915 3.30126 59.0677 3.7147L51.8916 10.7124L52.7655 6.35775C52.8818 5.7771 52.5059 5.21204 51.9251 5.09542C51.3451 4.97948 50.7792 5.35505 50.6627 5.93583L49.1718 13.3644L46.0965 16.3635L46.9503 12.1094C47.0668 11.5287 46.6907 10.9637 46.1099 10.847C45.5294 10.7308 44.964 11.1067 44.8475 11.6875L43.3769 19.0154L37.8002 24.4534C37.3761 24.8669 37.3678 25.5457 37.7811 25.9696C37.9914 26.1851 38.2699 26.2933 38.5491 26.2933C38.8189 26.2933 39.0891 26.1921 39.2975 25.9888L44.5353 20.8812L52.3999 20.747C52.992 20.7369 53.4637 20.2488 53.4537 19.6565C53.4437 19.0705 52.9656 18.6026 52.382 18.6026C52.3757 18.6026 52.3694 18.6025 52.3633 18.6027L46.774 18.698L50.4347 15.1283L58.215 14.9952C58.8071 14.9851 59.2788 14.497 59.2688 13.9048C59.2588 13.3188 58.7807 12.8508 58.197 12.8508C58.1908 12.8508 58.1845 12.8508 58.1783 12.8509L52.6735 12.945L60.5647 5.24991C60.989 4.83661 60.9975 4.1578 60.584 3.73384Z" fill="white"/>
<path d="M61.4128 56.0731C60.3313 56.0731 59.3213 56.3778 58.4628 56.9054C57.1949 52.757 53.3371 49.7394 48.7737 49.7394C48.2673 49.7394 47.77 49.7777 47.2837 49.8494C45.2152 45.117 40.495 41.8086 35.0001 41.8086C29.5052 41.8086 24.785 45.117 22.7165 49.8494C22.23 49.7777 21.7326 49.7394 21.2265 49.7394C16.6631 49.7394 12.8054 52.757 11.5374 56.9054C10.6789 56.3778 9.66898 56.0731 8.5874 56.0731C5.4709 56.0731 2.94434 58.5997 2.94434 61.7162C2.94434 64.8327 5.4709 67.3593 8.5874 67.3593C10.2576 67.3593 11.7576 66.6333 12.7907 65.4802C14.6066 68.2052 17.7063 70.0015 21.2264 70.0015C24.0771 70.0015 26.6514 68.8223 28.4921 66.9271C30.4195 68.0001 32.6376 68.6134 35.0001 68.6134C37.3625 68.6134 39.5807 67.9999 41.508 66.9271C43.3491 68.8223 45.9231 70.0015 48.7738 70.0015C52.2939 70.0015 55.3937 68.2054 57.2095 65.4802C58.2427 66.6333 59.7428 67.3593 61.4128 67.3593C64.5293 67.3593 67.0559 64.8327 67.0559 61.7162C67.0559 58.5996 64.5293 56.0731 61.4128 56.0731Z" fill="black"/>
<path d="M42.3673 47.295C43.7001 47.295 44.986 47.4923 46.2012 47.8544C43.8052 44.2136 39.6844 41.8086 35.0001 41.8086C29.5051 41.8086 24.785 45.117 22.7165 49.8494C22.23 49.7777 21.7326 49.7394 21.2265 49.7394C16.6631 49.7394 12.8054 52.757 11.5374 56.9054C10.6789 56.3778 9.66898 56.0731 8.5874 56.0731C5.4709 56.0731 2.94434 58.5997 2.94434 61.7162C2.94434 64.8327 5.4709 67.3593 8.5874 67.3593C10.2576 67.3593 11.7576 66.6333 12.7907 65.4802C14.6066 68.2052 17.7063 70.0015 21.2264 70.0015C24.0771 70.0015 26.6514 68.8223 28.4921 66.9271C29.3327 67.3951 30.2285 67.7753 31.1673 68.0557C29.7766 65.9433 28.9651 63.4156 28.9651 60.6974C28.9651 53.2956 34.9655 47.295 42.3673 47.295Z" fill="black"/>
<path d="M40.33 59.9921C41.6719 59.9921 42.7596 58.9043 42.7596 57.5624C42.7596 56.2206 41.6719 55.1328 40.33 55.1328C38.9882 55.1328 37.9004 56.2206 37.9004 57.5624C37.9004 58.9043 38.9882 59.9921 40.33 59.9921Z" fill="black"/>
<path d="M50.1259 65.7147C51.4678 65.7147 52.5555 64.6269 52.5555 63.2851C52.5555 61.9433 51.4678 60.8555 50.1259 60.8555C48.7841 60.8555 47.6963 61.9433 47.6963 63.2851C47.6963 64.6269 48.7841 65.7147 50.1259 65.7147Z" fill="black"/>
<path d="M48.6321 55.9049C49.1485 55.9049 49.567 55.4864 49.567 54.97C49.567 54.4537 49.1485 54.0352 48.6321 54.0352C48.1158 54.0352 47.6973 54.4537 47.6973 54.97C47.6973 55.4864 48.1158 55.9049 48.6321 55.9049Z" fill="black"/>
<path d="M35.0003 65.1549C35.5166 65.1549 35.9352 64.7364 35.9352 64.22C35.9352 63.7037 35.5166 63.2852 35.0003 63.2852C34.484 63.2852 34.0654 63.7037 34.0654 64.22C34.0654 64.7364 34.484 65.1549 35.0003 65.1549Z" fill="black"/>
<path d="M37.8997 52.4088C38.416 52.4088 38.8346 51.9903 38.8346 51.4739C38.8346 50.9576 38.416 50.5391 37.8997 50.5391C37.3834 50.5391 36.9648 50.9576 36.9648 51.4739C36.9648 51.9903 37.3834 52.4088 37.8997 52.4088Z" fill="black"/>
<path d="M58.0169 60.9284C58.5332 60.9284 58.9518 60.5098 58.9518 59.9935C58.9518 59.4772 58.5332 59.0586 58.0169 59.0586C57.5006 59.0586 57.082 59.4772 57.082 59.9935C57.082 60.5098 57.5006 60.9284 58.0169 60.9284Z" fill="black"/>
<path d="M52.5566 45.8007C53.8984 45.8007 54.9862 44.7129 54.9862 43.371C54.9862 42.0292 53.8984 40.9414 52.5566 40.9414C51.2147 40.9414 50.127 42.0292 50.127 43.371C50.127 44.7129 51.2147 45.8007 52.5566 45.8007Z" fill="black"/>
<path d="M58.0169 49.737C58.5332 49.737 58.9518 49.3184 58.9518 48.8021C58.9518 48.2858 58.5332 47.8672 58.0169 47.8672C57.5006 47.8672 57.082 48.2858 57.082 48.8021C57.082 49.3184 57.5006 49.737 58.0169 49.737Z" fill="black"/>
<path d="M58.0169 45.2409C58.5332 45.2409 58.9518 44.8223 58.9518 44.306C58.9518 43.7897 58.5332 43.3711 58.0169 43.3711C57.5006 43.3711 57.082 43.7897 57.082 44.306C57.082 44.8223 57.5006 45.2409 58.0169 45.2409Z" fill="black"/>
<path d="M15.3847 44.9413C16.7266 44.9413 17.8143 43.8535 17.8143 42.5117C17.8143 41.1698 16.7266 40.082 15.3847 40.082C14.0429 40.082 12.9551 41.1698 12.9551 42.5117C12.9551 43.8535 14.0429 44.9413 15.3847 44.9413Z" fill="black"/>
<path d="M11.3499 48.8034C11.8662 48.8034 12.2848 48.3848 12.2848 47.8685C12.2848 47.3522 11.8662 46.9336 11.3499 46.9336C10.8336 46.9336 10.415 47.3522 10.415 47.8685C10.415 48.3848 10.8336 48.8034 11.3499 48.8034Z" fill="black"/>
</g>
<defs>
<clipPath id="clip0_2661_8072">
<rect width="70" height="70" fill="white"/>
</clipPath>
</defs>
</svg>
