<svg width="70" height="70" viewBox="0 0 70 70" fill="none" xmlns="http://www.w3.org/2000/svg">
<path d="M29.6224 37.6417H2.73438C1.22418 37.6417 0 38.8659 0 40.3761V67.2641C0 68.7743 1.22418 69.9985 2.73438 69.9985H29.6224C31.1326 69.9985 32.3568 68.7743 32.3568 67.2641V40.3761C32.3568 38.8659 31.1325 37.6417 29.6224 37.6417ZM26.8881 64.5297H5.46875V43.1104H26.8881V64.5297ZM53.8217 37.6417C44.9009 37.6417 37.6433 44.8993 37.6433 53.8202C37.6433 62.7409 44.9009 69.9985 53.8217 69.9985C62.7426 69.9985 70 62.7409 70 53.8202C70 44.8993 62.7424 37.6417 53.8217 37.6417V37.6417ZM53.8217 64.5297C47.9164 64.5297 43.1121 59.7255 43.1121 53.8202C43.1121 47.9149 47.9164 43.1104 53.8217 43.1104C59.727 43.1104 64.5312 47.9149 64.5312 53.8202C64.5312 59.7255 59.727 64.5297 53.8217 64.5297ZM18.8672 32.3553H51.1328C53.2558 32.3553 54.5694 30.034 53.4775 28.2141L37.3447 1.32604C36.2854 -0.439413 33.7177 -0.444609 32.6553 1.32604L16.5225 28.2141C15.4302 30.0345 16.7449 32.3553 18.8672 32.3553V32.3553ZM35 8.04754L46.3034 26.8866H23.6966L35 8.04754Z" fill="black"/>
</svg>
