<svg width="42" height="42" viewBox="0 0 42 42" fill="none" xmlns="http://www.w3.org/2000/svg">
<circle cx="21" cy="21" r="20" stroke="black" stroke-width="2"/>
<path d="M16.0291 29.8824H12.2973V17.9432H16.0291V29.8824ZM14.1612 16.3146C12.9679 16.3146 12 15.3327 12 14.1471C12 13.5777 12.2277 13.0315 12.633 12.6289C13.0383 12.2262 13.588 12 14.1612 12C14.7344 12 15.2841 12.2262 15.6894 12.6289C16.0947 13.0315 16.3224 13.5777 16.3224 14.1471C16.3224 15.3327 15.3541 16.3146 14.1612 16.3146ZM29.996 29.8824H26.2722V24.0705C26.2722 22.6854 26.2441 20.9091 24.332 20.9091C22.3918 20.9091 22.0945 22.4139 22.0945 23.9707V29.8824H18.3667V17.9432H21.9458V19.5719H21.998C22.4962 18.6338 23.7133 17.6439 25.5289 17.6439C29.3057 17.6439 30 20.1147 30 23.3241V29.8824H29.996Z" fill="black"/>
</svg>
