<svg width="70" height="70" viewBox="0 0 70 70" fill="none" xmlns="http://www.w3.org/2000/svg">
<path d="M35 68.8346C32.7815 68.8337 30.6008 68.2594 28.6697 67.1674L10.003 56.6068C8.03182 55.4901 6.39164 53.8712 5.24937 51.9147C4.10709 49.9582 3.5035 47.7341 3.5 45.4686V24.5351C3.50314 22.2695 4.10658 20.0452 5.24889 18.0887C6.3912 16.1322 8.03158 14.5133 10.003 13.3969L28.6697 2.83509C30.6009 1.7423 32.7822 1.16797 35.0012 1.16797C37.2202 1.16797 39.4014 1.7423 41.3327 2.83509L59.9993 13.3969C61.9703 14.5136 63.6102 16.1326 64.7521 18.0891C65.894 20.0456 66.4971 22.2697 66.5 24.5351V45.4686C66.4957 47.7338 65.8918 49.9575 64.7499 51.9138C63.6079 53.87 61.9685 55.4892 59.9982 56.6068L41.3315 67.1674C39.4 68.2596 37.2189 68.8339 35 68.8346V68.8346Z" fill="black"/>
<path d="M60.6663 24.5338V45.4661C60.6664 46.7004 60.3384 47.9126 59.7161 48.9786C59.0937 50.0446 58.1993 50.926 57.1243 51.5328L38.4577 62.0946C37.4028 62.6911 36.2115 63.0045 34.9997 63.0045C33.7878 63.0045 32.5966 62.6911 31.5417 62.0946L12.875 51.5328C11.8001 50.926 10.9057 50.0446 10.2833 48.9786C9.66093 47.9126 9.33298 46.7004 9.33301 45.4661V24.5338C9.33365 23.3003 9.66194 22.0892 10.2843 21.0243C10.9066 19.9594 11.8007 19.0789 12.875 18.4729L31.5417 7.90993C32.5966 7.31346 33.7878 7 34.9997 7C36.2115 7 37.4028 7.31346 38.4577 7.90993L57.1243 18.4729C58.1987 19.0789 59.0927 19.9594 59.7151 21.0243C60.3374 22.0892 60.6657 23.3003 60.6663 24.5338V24.5338Z" fill="white"/>
<path d="M25.6671 24.5014C25.3576 24.5014 25.0609 24.6243 24.8421 24.8431C24.6233 25.0619 24.5004 25.3586 24.5004 25.6681V39.3927L17.3837 25.1466C17.2682 24.9079 17.0747 24.7156 16.8353 24.6016C16.5958 24.4876 16.3246 24.4586 16.0665 24.5193C15.8083 24.58 15.5785 24.7269 15.415 24.9357C15.2516 25.1446 15.1641 25.4029 15.1671 25.6681V44.3347C15.1671 44.6442 15.29 44.9409 15.5088 45.1597C15.7276 45.3785 16.0243 45.5014 16.3337 45.5014C16.6432 45.5014 16.9399 45.3785 17.1587 45.1597C17.3775 44.9409 17.5004 44.6442 17.5004 44.3347V30.6101L24.6229 44.8562C24.7198 45.0502 24.8688 45.2133 25.0533 45.3272C25.2377 45.4412 25.4503 45.5015 25.6671 45.5014C25.7573 45.501 25.8473 45.4909 25.9354 45.4711C26.1913 45.4106 26.4192 45.2655 26.5823 45.0592C26.7453 44.8529 26.8339 44.5977 26.8337 44.3347V25.6681C26.8337 25.3586 26.7108 25.0619 26.492 24.8431C26.2732 24.6243 25.9765 24.5014 25.6671 24.5014Z" fill="black"/>
<path d="M40.834 24.5H31.5007C31.1912 24.5 30.8945 24.6229 30.6757 24.8417C30.4569 25.0605 30.334 25.3572 30.334 25.6667V44.3333C30.334 44.6428 30.4569 44.9395 30.6757 45.1583C30.8945 45.3771 31.1912 45.5 31.5007 45.5C31.8101 45.5 32.1068 45.3771 32.3256 45.1583C32.5444 44.9395 32.6673 44.6428 32.6673 44.3333V36.1667H37.334C37.6434 36.1667 37.9402 36.0438 38.1589 35.825C38.3777 35.6062 38.5007 35.3094 38.5007 35C38.5007 34.6906 38.3777 34.3938 38.1589 34.175C37.9402 33.9562 37.6434 33.8333 37.334 33.8333H32.6673V26.8333H40.834C41.1434 26.8333 41.4402 26.7104 41.6589 26.4916C41.8777 26.2728 42.0007 25.9761 42.0007 25.6667C42.0007 25.3572 41.8777 25.0605 41.6589 24.8417C41.4402 24.6229 41.1434 24.5 40.834 24.5Z" fill="black"/>
<path d="M53.667 24.5H44.3337C44.0242 24.5 43.7275 24.6229 43.5087 24.8417C43.2899 25.0605 43.167 25.3572 43.167 25.6667C43.167 25.9761 43.2899 26.2728 43.5087 26.4916C43.7275 26.7104 44.0242 26.8333 44.3337 26.8333H47.8337V44.3333C47.8337 44.6428 47.9566 44.9395 48.1754 45.1583C48.3942 45.3771 48.6909 45.5 49.0003 45.5C49.3097 45.5 49.6065 45.3771 49.8253 45.1583C50.0441 44.9395 50.167 44.6428 50.167 44.3333V26.8333H53.667C53.9764 26.8333 54.2732 26.7104 54.492 26.4916C54.7107 26.2728 54.8337 25.9761 54.8337 25.6667C54.8337 25.3572 54.7107 25.0605 54.492 24.8417C54.2732 24.6229 53.9764 24.5 53.667 24.5Z" fill="black"/>
</svg>
