<svg width="68" height="64" viewBox="0 0 68 64" fill="none" xmlns="http://www.w3.org/2000/svg">
<path d="M10.2875 20.5664L0.09375 26.4522V38.1933L10.2875 44.0791L20.4813 38.1933V26.4522L10.2875 20.5664Z" fill="#444444"/>
<path d="M10.2875 32.3375L0.09375 26.4531V38.1942L10.2875 44.08L20.4813 38.1942V26.4531L10.2875 32.3375Z" fill="black"/>
<path d="M0.09375 26.4531V38.1942L10.2875 44.08V32.3375L0.09375 26.4531Z" fill="black"/>
<path d="M57.7123 20.5664L47.5186 26.4522V38.1933L57.7123 44.0791L67.9061 38.1933V26.4522L57.7123 20.5664Z" fill="#444444"/>
<path d="M57.7123 32.3375L47.5186 26.4531V38.1942L57.7123 44.08L67.9061 38.1942V26.4531L57.7123 32.3375Z" fill="black"/>
<path d="M47.5186 26.4531V38.1942L57.7123 44.08V32.3375L47.5186 26.4531Z" fill="black"/>
<path d="M34.0004 39.8086L23.8066 45.6944V57.4355L34.0004 63.3213L44.1941 57.4355V45.6944L34.0004 39.8086Z" fill="#444444"/>
<path d="M34.0004 51.5811L23.8066 45.6953V57.4364L34.0004 63.3222L44.1941 57.4364V45.6953L34.0004 51.5811Z" fill="black"/>
<path d="M23.8066 45.6953V57.4364L34.0004 63.3222V51.5811L23.8066 45.6953Z" fill="black"/>
<path d="M34.0004 0.679688L23.8066 6.56552V18.3066L34.0004 24.1924L44.1941 18.3066V6.56552L34.0004 0.679688Z" fill="#444444"/>
<path d="M34.0004 12.4508L23.8066 6.56641V18.3074L34.0004 24.1933L44.1941 18.3074V6.56641L34.0004 12.4508Z" fill="black"/>
<path d="M23.8066 6.56641V18.3074L34.0004 24.1933V12.4508L23.8066 6.56641Z" fill="black"/>
<path d="M18.6277 22.4035C18.3866 22.4041 18.152 22.325 17.9605 22.1785C17.769 22.032 17.6312 21.8263 17.5687 21.5935C17.5061 21.3606 17.5223 21.1136 17.6147 20.8909C17.707 20.6681 17.8704 20.4821 18.0793 20.3619L28.085 14.5839C28.2095 14.5121 28.3469 14.4655 28.4894 14.4468C28.6318 14.4281 28.7766 14.4376 28.9154 14.4749C29.0542 14.5121 29.1843 14.5763 29.2983 14.6639C29.4123 14.7514 29.5079 14.8605 29.5798 14.985C29.6516 15.1095 29.6982 15.2469 29.7169 15.3894C29.7356 15.5319 29.7261 15.6766 29.6888 15.8154C29.6516 15.9542 29.5874 16.0844 29.4998 16.1983C29.4123 16.3123 29.3032 16.408 29.1787 16.4798L19.1731 22.2562C19.0077 22.353 18.8194 22.4039 18.6277 22.4035V22.4035Z" fill="black"/>
<path d="M25.1846 41.9922C24.9931 41.993 24.8048 41.9427 24.6392 41.8464L14.5621 36.0306C14.3107 35.8855 14.1272 35.6465 14.052 35.3662C13.9768 35.0859 14.0161 34.7872 14.1611 34.5358C14.3061 34.2844 14.5451 34.1009 14.8254 34.0257C15.1058 33.9505 15.4045 33.9897 15.6559 34.1347L25.733 39.952C25.9419 40.0723 26.1053 40.2583 26.1977 40.481C26.29 40.7038 26.3062 40.9508 26.2436 41.1836C26.1811 41.4165 26.0433 41.6222 25.8518 41.7687C25.6603 41.9152 25.4258 41.9943 25.1846 41.9937V41.9922Z" fill="black"/>
<path d="M49.3729 22.4021C49.1814 22.4029 48.9931 22.3525 48.8275 22.2562L38.8219 16.4798C38.6974 16.408 38.5883 16.3123 38.5008 16.1983C38.4132 16.0844 38.349 15.9542 38.3118 15.8154C38.2746 15.6766 38.265 15.5319 38.2837 15.3894C38.3024 15.2469 38.349 15.1095 38.4209 14.985C38.4927 14.8605 38.5883 14.7514 38.7023 14.6639C38.8163 14.5763 38.9464 14.5121 39.0852 14.4749C39.224 14.4376 39.3688 14.4281 39.5113 14.4468C39.6538 14.4655 39.7912 14.5121 39.9156 14.5839L49.9213 20.3619C50.1302 20.4822 50.2936 20.6681 50.386 20.8909C50.4783 21.1136 50.4945 21.3606 50.4319 21.5935C50.3694 21.8263 50.2317 22.032 50.0401 22.1785C49.8486 22.325 49.6141 22.4041 49.3729 22.4035V22.4021Z" fill="black"/>
<path d="M42.8162 41.9937C42.575 41.9943 42.3405 41.9152 42.149 41.7687C41.9574 41.6222 41.8197 41.4165 41.7572 41.1836C41.6946 40.9508 41.7108 40.7038 41.8031 40.481C41.8955 40.2583 42.0589 40.0723 42.2678 39.952L52.3449 34.1347C52.5963 33.9897 52.895 33.9505 53.1754 34.0257C53.4557 34.1009 53.6947 34.2844 53.8397 34.5358C53.9847 34.7872 54.024 35.0859 53.9488 35.3662C53.8735 35.6465 53.6901 35.8855 53.4387 36.0306L43.3616 41.8464C43.1961 41.9432 43.0078 41.994 42.8162 41.9937V41.9937Z" fill="black"/>
</svg>
