<svg width="278" height="65" viewBox="0 0 278 65" fill="none" xmlns="http://www.w3.org/2000/svg">
<path d="M0 11.9766C0 5.90143 4.92487 0.976562 11 0.976562H267C273.075 0.976562 278 5.90143 278 11.9766V64.9766H0V11.9766Z" fill="#43D9BB"/>
<path d="M29.5127 36.9766H25.8877L31.4111 20.9766H35.7705L41.2861 36.9766H37.6611L33.6533 24.6328H33.5283L29.5127 36.9766ZM29.2861 30.6875H37.8486V33.3281H29.2861V30.6875ZM43.2119 36.9766V20.9766H49.5244C50.738 20.9766 51.7718 21.2083 52.626 21.6719C53.4801 22.1302 54.1312 22.7682 54.5791 23.5859C55.0322 24.3984 55.2588 25.3359 55.2588 26.3984C55.2588 27.4609 55.0296 28.3984 54.5713 29.2109C54.113 30.0234 53.4489 30.6562 52.5791 31.1094C51.7145 31.5625 50.6676 31.7891 49.4385 31.7891H45.415V29.0781H48.8916C49.5426 29.0781 50.0791 28.9661 50.501 28.7422C50.9281 28.513 51.2458 28.1979 51.4541 27.7969C51.6676 27.3906 51.7744 26.9245 51.7744 26.3984C51.7744 25.8672 51.6676 25.4036 51.4541 25.0078C51.2458 24.6068 50.9281 24.2969 50.501 24.0781C50.0739 23.8542 49.5322 23.7422 48.876 23.7422H46.5947V36.9766H43.2119ZM60.8389 20.9766V36.9766H57.4561V20.9766H60.8389ZM77.3936 25.5781C77.3311 24.9479 77.0628 24.4583 76.5889 24.1094C76.1149 23.7604 75.4717 23.5859 74.6592 23.5859C74.1071 23.5859 73.641 23.6641 73.2607 23.8203C72.8805 23.9714 72.5889 24.1823 72.3857 24.4531C72.1878 24.724 72.0889 25.0312 72.0889 25.375C72.0785 25.6615 72.1383 25.9115 72.2686 26.125C72.404 26.3385 72.5889 26.5234 72.8232 26.6797C73.0576 26.8307 73.3285 26.9635 73.6357 27.0781C73.943 27.1875 74.2712 27.2812 74.6201 27.3594L76.0576 27.7031C76.7555 27.8594 77.3962 28.0677 77.9795 28.3281C78.5628 28.5885 79.068 28.9089 79.4951 29.2891C79.9222 29.6693 80.2529 30.1172 80.4873 30.6328C80.7269 31.1484 80.8493 31.7396 80.8545 32.4062C80.8493 33.3854 80.5993 34.2344 80.1045 34.9531C79.6149 35.6667 78.9066 36.2214 77.9795 36.6172C77.0576 37.0078 75.9456 37.2031 74.6436 37.2031C73.3519 37.2031 72.2269 37.0052 71.2686 36.6094C70.3154 36.2135 69.5706 35.6276 69.0342 34.8516C68.5029 34.0703 68.2243 33.1042 68.1982 31.9531H71.4717C71.5081 32.4896 71.6618 32.9375 71.9326 33.2969C72.2087 33.651 72.5758 33.9193 73.0342 34.1016C73.4977 34.2786 74.0212 34.3672 74.6045 34.3672C75.1774 34.3672 75.6748 34.2839 76.0967 34.1172C76.5238 33.9505 76.8545 33.7187 77.0889 33.4219C77.3232 33.125 77.4404 32.7839 77.4404 32.3984C77.4404 32.0391 77.3337 31.737 77.1201 31.4922C76.9118 31.2474 76.6045 31.0391 76.1982 30.8672C75.7972 30.6953 75.305 30.5391 74.7217 30.3984L72.9795 29.9609C71.6305 29.6328 70.5654 29.1198 69.7842 28.4219C69.0029 27.724 68.6149 26.7839 68.6201 25.6016C68.6149 24.6328 68.8727 23.7865 69.3936 23.0625C69.9196 22.3385 70.641 21.7734 71.5576 21.3672C72.4743 20.9609 73.516 20.7578 74.6826 20.7578C75.8701 20.7578 76.9066 20.9609 77.792 21.3672C78.6826 21.7734 79.3753 22.3385 79.8701 23.0625C80.3649 23.7865 80.6201 24.625 80.6357 25.5781H77.3936ZM97.833 28.9766C97.833 30.7214 97.5023 32.2057 96.8408 33.4297C96.1846 34.6536 95.2887 35.5885 94.1533 36.2344C93.0231 36.875 91.7523 37.1953 90.3408 37.1953C88.9189 37.1953 87.6429 36.8724 86.5127 36.2266C85.3825 35.5807 84.4893 34.6458 83.833 33.4219C83.1768 32.1979 82.8486 30.7161 82.8486 28.9766C82.8486 27.2318 83.1768 25.7474 83.833 24.5234C84.4893 23.2995 85.3825 22.3672 86.5127 21.7266C87.6429 21.0807 88.9189 20.7578 90.3408 20.7578C91.7523 20.7578 93.0231 21.0807 94.1533 21.7266C95.2887 22.3672 96.1846 23.2995 96.8408 24.5234C97.5023 25.7474 97.833 27.2318 97.833 28.9766ZM94.4033 28.9766C94.4033 27.8464 94.2341 26.8932 93.8955 26.1172C93.5622 25.3411 93.0908 24.7526 92.4814 24.3516C91.8721 23.9505 91.1585 23.75 90.3408 23.75C89.5231 23.75 88.8096 23.9505 88.2002 24.3516C87.5908 24.7526 87.1169 25.3411 86.7783 26.1172C86.445 26.8932 86.2783 27.8464 86.2783 28.9766C86.2783 30.1068 86.445 31.0599 86.7783 31.8359C87.1169 32.612 87.5908 33.2005 88.2002 33.6016C88.8096 34.0026 89.5231 34.2031 90.3408 34.2031C91.1585 34.2031 91.8721 34.0026 92.4814 33.6016C93.0908 33.2005 93.5622 32.612 93.8955 31.8359C94.2341 31.0599 94.4033 30.1068 94.4033 28.9766ZM100.339 36.9766V20.9766H103.722V34.1875H110.581V36.9766H100.339ZM122.704 20.9766H126.087V31.3672C126.087 32.5339 125.808 33.5547 125.251 34.4297C124.699 35.3047 123.925 35.987 122.931 36.4766C121.936 36.9609 120.777 37.2031 119.454 37.2031C118.126 37.2031 116.965 36.9609 115.97 36.4766C114.975 35.987 114.201 35.3047 113.649 34.4297C113.097 33.5547 112.821 32.5339 112.821 31.3672V20.9766H116.204V31.0781C116.204 31.6875 116.337 32.2292 116.603 32.7031C116.873 33.1771 117.254 33.5495 117.743 33.8203C118.233 34.0911 118.803 34.2266 119.454 34.2266C120.11 34.2266 120.681 34.0911 121.165 33.8203C121.655 33.5495 122.032 33.1771 122.298 32.7031C122.569 32.2292 122.704 31.6875 122.704 31.0781V20.9766ZM128.261 23.7656V20.9766H141.401V23.7656H136.503V36.9766H133.159V23.7656H128.261ZM146.948 20.9766V36.9766H143.565V20.9766H146.948ZM164.435 28.9766C164.435 30.7214 164.104 32.2057 163.442 33.4297C162.786 34.6536 161.89 35.5885 160.755 36.2344C159.625 36.875 158.354 37.1953 156.942 37.1953C155.521 37.1953 154.244 36.8724 153.114 36.2266C151.984 35.5807 151.091 34.6458 150.435 33.4219C149.778 32.1979 149.45 30.7161 149.45 28.9766C149.45 27.2318 149.778 25.7474 150.435 24.5234C151.091 23.2995 151.984 22.3672 153.114 21.7266C154.244 21.0807 155.521 20.7578 156.942 20.7578C158.354 20.7578 159.625 21.0807 160.755 21.7266C161.89 22.3672 162.786 23.2995 163.442 24.5234C164.104 25.7474 164.435 27.2318 164.435 28.9766ZM161.005 28.9766C161.005 27.8464 160.836 26.8932 160.497 26.1172C160.164 25.3411 159.692 24.7526 159.083 24.3516C158.474 23.9505 157.76 23.75 156.942 23.75C156.125 23.75 155.411 23.9505 154.802 24.3516C154.192 24.7526 153.718 25.3411 153.38 26.1172C153.047 26.8932 152.88 27.8464 152.88 28.9766C152.88 30.1068 153.047 31.0599 153.38 31.8359C153.718 32.612 154.192 33.2005 154.802 33.6016C155.411 34.0026 156.125 34.2031 156.942 34.2031C157.76 34.2031 158.474 34.0026 159.083 33.6016C159.692 33.2005 160.164 32.612 160.497 31.8359C160.836 31.0599 161.005 30.1068 161.005 28.9766ZM180.323 20.9766V36.9766H177.401L170.44 26.9062H170.323V36.9766H166.94V20.9766H169.909L176.815 31.0391H176.956V20.9766H180.323ZM193.882 36.9766H188.21V20.9766H193.929C195.538 20.9766 196.924 21.2969 198.085 21.9375C199.246 22.5729 200.14 23.487 200.765 24.6797C201.395 25.8724 201.71 27.2995 201.71 28.9609C201.71 30.6276 201.395 32.0599 200.765 33.2578C200.14 34.4557 199.241 35.375 198.069 36.0156C196.903 36.6562 195.507 36.9766 193.882 36.9766ZM191.593 34.0781H193.741C194.741 34.0781 195.582 33.901 196.265 33.5469C196.952 33.1875 197.468 32.6328 197.812 31.8828C198.16 31.1276 198.335 30.1536 198.335 28.9609C198.335 27.7786 198.16 26.8125 197.812 26.0625C197.468 25.3125 196.955 24.7604 196.272 24.4062C195.59 24.0521 194.749 23.875 193.749 23.875H191.593V34.0781ZM204.216 36.9766V20.9766H214.997V23.7656H207.599V27.5781H214.442V30.3672H207.599V34.1875H215.028V36.9766H204.216ZM217.687 20.9766H221.858L226.265 31.7266H226.452L230.858 20.9766H235.03V36.9766H231.749V26.5625H231.616L227.476 36.8984H225.241L221.101 26.5234H220.968V36.9766H217.687V20.9766ZM252.521 28.9766C252.521 30.7214 252.19 32.2057 251.528 33.4297C250.872 34.6536 249.976 35.5885 248.841 36.2344C247.711 36.875 246.44 37.1953 245.028 37.1953C243.606 37.1953 242.33 36.8724 241.2 36.2266C240.07 35.5807 239.177 34.6458 238.521 33.4219C237.864 32.1979 237.536 30.7161 237.536 28.9766C237.536 27.2318 237.864 25.7474 238.521 24.5234C239.177 23.2995 240.07 22.3672 241.2 21.7266C242.33 21.0807 243.606 20.7578 245.028 20.7578C246.44 20.7578 247.711 21.0807 248.841 21.7266C249.976 22.3672 250.872 23.2995 251.528 24.5234C252.19 25.7474 252.521 27.2318 252.521 28.9766ZM249.091 28.9766C249.091 27.8464 248.922 26.8932 248.583 26.1172C248.25 25.3411 247.778 24.7526 247.169 24.3516C246.56 23.9505 245.846 23.75 245.028 23.75C244.211 23.75 243.497 23.9505 242.888 24.3516C242.278 24.7526 241.804 25.3411 241.466 26.1172C241.132 26.8932 240.966 27.8464 240.966 28.9766C240.966 30.1068 241.132 31.0599 241.466 31.8359C241.804 32.612 242.278 33.2005 242.888 33.6016C243.497 34.0026 244.211 34.2031 245.028 34.2031C245.846 34.2031 246.56 34.0026 247.169 33.6016C247.778 33.2005 248.25 32.612 248.583 31.8359C248.922 31.0599 249.091 30.1068 249.091 28.9766Z" fill="white"/>
</svg>
