<svg width="46" height="41" viewBox="0 0 46 41" fill="none" xmlns="http://www.w3.org/2000/svg">
<path d="M41.6875 20.3438H34.5V14.6295C34.5 11.4777 37.0785 8.91518 40.25 8.91518H40.9688C42.1637 8.91518 43.125 7.95982 43.125 6.77232V2.48661C43.125 1.29911 42.1637 0.34375 40.9688 0.34375H40.25C32.3078 0.34375 25.875 6.73661 25.875 14.6295V36.058C25.875 38.4241 27.8066 40.3438 30.1875 40.3438H41.6875C44.0684 40.3438 46 38.4241 46 36.058V24.6295C46 22.2634 44.0684 20.3438 41.6875 20.3438ZM15.8125 20.3438H8.625V14.6295C8.625 11.4777 11.2035 8.91518 14.375 8.91518H15.0938C16.2887 8.91518 17.25 7.95982 17.25 6.77232V2.48661C17.25 1.29911 16.2887 0.34375 15.0938 0.34375H14.375C6.43281 0.34375 0 6.73661 0 14.6295V36.058C0 38.4241 1.93164 40.3438 4.3125 40.3438H15.8125C18.1934 40.3438 20.125 38.4241 20.125 36.058V24.6295C20.125 22.2634 18.1934 20.3438 15.8125 20.3438Z" fill="#DDDDDD"/>
<path d="M41.6875 20.3438H34.5V14.6295C34.5 11.4777 37.0785 8.91518 40.25 8.91518H40.9688C42.1637 8.91518 43.125 7.95982 43.125 6.77232V2.48661C43.125 1.29911 42.1637 0.34375 40.9688 0.34375H40.25C32.3078 0.34375 25.875 6.73661 25.875 14.6295V36.058C25.875 38.4241 27.8066 40.3438 30.1875 40.3438H41.6875C44.0684 40.3438 46 38.4241 46 36.058V24.6295C46 22.2634 44.0684 20.3438 41.6875 20.3438ZM15.8125 20.3438H8.625V14.6295C8.625 11.4777 11.2035 8.91518 14.375 8.91518H15.0938C16.2887 8.91518 17.25 7.95982 17.25 6.77232V2.48661C17.25 1.29911 16.2887 0.34375 15.0938 0.34375H14.375C6.43281 0.34375 0 6.73661 0 14.6295V36.058C0 38.4241 1.93164 40.3438 4.3125 40.3438H15.8125C18.1934 40.3438 20.125 38.4241 20.125 36.058V24.6295C20.125 22.2634 18.1934 20.3438 15.8125 20.3438Z" fill="url(#paint0_linear_2656_6297)" fill-opacity="0.12"/>
<defs>
<linearGradient id="paint0_linear_2656_6297" x1="23" y1="0.34375" x2="23" y2="40.3438" gradientUnits="userSpaceOnUse">
<stop stop-color="white"/>
<stop offset="1" stop-color="white" stop-opacity="0"/>
</linearGradient>
</defs>
</svg>
