<svg width="295" height="81" viewBox="0 0 295 81" fill="none" xmlns="http://www.w3.org/2000/svg">
<path d="M45.9076 80.9023V26.1249L9.92551 3.51037C1.98959 -1.9045 0.578074 1.01568 0.578125 3.51037V49.9456C0.578125 55.2524 3.37159 58.8436 8.21672 61.7051L45.9076 80.9023Z" fill="#1BC5A2"/>
<mask id="mask0_2107_766" style="mask-type:alpha" maskUnits="userSpaceOnUse" x="0" y="0" width="46" height="81">
<path d="M45.9076 80.9023V26.1249L9.92551 3.51037C1.98959 -1.9045 0.578074 1.01568 0.578125 3.51037V49.9456C0.578125 55.2524 3.37159 58.8436 8.21672 61.7051L45.9076 80.9023Z" fill="white"/>
</mask>
<g mask="url(#mask0_2107_766)">
<path d="M22.625 40.7936L45.9042 26.1367V54.3351L22.625 40.7936Z" fill="#43D9BB"/>
<path d="M21.4922 68.4412L45.9039 54.3281V80.9028L21.4922 68.4412Z" fill="#41B8A9"/>
<path d="M22.6211 40.7929L0.578276 26.3809V54.3344L22.6211 40.7929Z" fill="#0C9383"/>
</g>
<path d="M45.9088 80.9023V26.1249L81.8909 3.51037C89.8268 -1.9045 91.2383 1.01568 91.2383 3.51037V49.9456C91.2383 55.2524 88.4448 58.8436 83.5997 61.7051L45.9088 80.9023Z" fill="#7EADF3"/>
<mask id="mask1_2107_766" style="mask-type:alpha" maskUnits="userSpaceOnUse" x="45" y="0" width="47" height="81">
<path d="M45.9088 80.9023V26.1249L81.8909 3.51037C89.8268 -1.9045 91.2383 1.01568 91.2383 3.51037V49.9456C91.2383 55.2524 88.4448 58.8436 83.5997 61.7051L45.9088 80.9023Z" fill="white"/>
</mask>
<g mask="url(#mask1_2107_766)">
<path d="M69.1914 40.7936L45.9122 26.1367V54.3351L69.1914 40.7936Z" fill="#A7C9FB"/>
<path d="M70.3242 68.4412L45.9125 54.3281V80.9028L70.3242 68.4412Z" fill="#7DA1D8"/>
<path d="M69.1953 40.7929L91.2381 26.3809V54.3344L69.1953 40.7929Z" fill="#4773B5"/>
</g>
<path d="M122.916 12.0258C122.771 10.5631 122.149 9.42678 121.049 8.61685C119.949 7.80692 118.456 7.40195 116.57 7.40195C115.289 7.40195 114.207 7.58328 113.324 7.94594C112.442 8.2965 111.765 8.78609 111.293 9.41469C110.834 10.0433 110.604 10.7565 110.604 11.5544C110.58 12.2192 110.719 12.7995 111.021 13.2951C111.336 13.7907 111.765 14.2199 112.309 14.5825C112.853 14.9331 113.481 15.2414 114.195 15.5073C114.908 15.7612 115.669 15.9788 116.479 16.1601L119.816 16.9579C121.436 17.3206 122.923 17.8041 124.276 18.4085C125.63 19.013 126.803 19.7564 127.794 20.6389C128.785 21.5213 129.553 22.5609 130.097 23.7577C130.653 24.9545 130.937 26.3265 130.949 27.8738C130.937 30.1465 130.357 32.1169 129.209 33.7851C128.072 35.4413 126.428 36.7287 124.276 37.6474C122.137 38.554 119.556 39.0074 116.534 39.0074C113.536 39.0074 110.925 38.548 108.7 37.6293C106.488 36.7105 104.76 35.3506 103.514 33.5494C102.281 31.7361 101.635 29.4937 101.574 26.8221H109.172C109.256 28.0673 109.613 29.1069 110.242 29.941C110.882 30.763 111.735 31.3856 112.798 31.8087C113.874 32.2197 115.089 32.4252 116.443 32.4252C117.773 32.4252 118.927 32.2318 119.906 31.8449C120.898 31.4581 121.665 30.9202 122.209 30.2311C122.753 29.5421 123.025 28.7503 123.025 27.8557C123.025 27.0216 122.777 26.3205 122.282 25.7523C121.798 25.1842 121.085 24.7006 120.142 24.3017C119.211 23.9028 118.069 23.5401 116.715 23.2137L112.671 22.1983C109.541 21.4367 107.068 20.246 105.255 18.6261C103.442 17.0063 102.541 14.8243 102.553 12.0802C102.541 9.83174 103.14 7.86736 104.349 6.18706C105.569 4.50675 107.244 3.19515 109.371 2.25225C111.499 1.30934 113.917 0.837891 116.624 0.837891C119.381 0.837891 121.786 1.30934 123.841 2.25225C125.908 3.19515 127.516 4.50675 128.665 6.18706C129.813 7.86736 130.405 9.81361 130.442 12.0258H122.916Z" fill="black"/>
<path d="M148.778 39.0255C145.913 39.0255 143.447 38.4452 141.38 37.2848C139.325 36.1122 137.742 34.456 136.629 32.3164C135.517 30.1646 134.961 27.62 134.961 24.6825C134.961 21.8175 135.517 19.3031 136.629 17.1392C137.742 14.9754 139.307 13.2891 141.326 12.0802C143.357 10.8714 145.738 10.2669 148.47 10.2669C150.308 10.2669 152.018 10.5631 153.602 11.1554C155.197 11.7357 156.588 12.6121 157.772 13.7847C158.969 14.9573 159.9 16.4321 160.565 18.2091C161.23 19.974 161.562 22.0411 161.562 24.4105V26.532H138.044V21.745H154.291C154.291 20.6328 154.049 19.6476 153.565 18.7893C153.082 17.931 152.411 17.2601 151.553 16.7766C150.706 16.281 149.721 16.0331 148.597 16.0331C147.424 16.0331 146.385 16.3051 145.478 16.8491C144.584 17.381 143.882 18.1003 143.375 19.0069C142.867 19.9015 142.607 20.8988 142.595 21.9988V26.5502C142.595 27.9282 142.849 29.119 143.357 30.1223C143.876 31.1257 144.608 31.8993 145.551 32.4433C146.494 32.9873 147.612 33.2593 148.905 33.2593C149.764 33.2593 150.549 33.1384 151.263 32.8966C151.976 32.6549 152.586 32.2922 153.094 31.8087C153.602 31.3251 153.988 30.7328 154.254 30.0316L161.399 30.5031C161.036 32.2197 160.293 33.7186 159.168 35C158.056 36.2693 156.618 37.2606 154.853 37.9738C153.1 38.6749 151.075 39.0255 148.778 39.0255Z" fill="black"/>
<path d="M179.187 39.0255C176.334 39.0255 173.88 38.4211 171.825 37.2122C169.782 35.9913 168.211 34.2989 167.111 32.135C166.023 29.9712 165.479 27.481 165.479 24.6643C165.479 21.8115 166.029 19.3091 167.129 17.1574C168.241 14.9935 169.818 13.3072 171.861 12.0983C173.904 10.8774 176.334 10.2669 179.151 10.2669C181.581 10.2669 183.708 10.7082 185.533 11.5906C187.359 12.4731 188.803 13.7122 189.867 15.3078C190.931 16.9035 191.517 18.7772 191.626 20.929H184.337C184.131 19.5388 183.587 18.4206 182.705 17.5744C181.834 16.7162 180.692 16.287 179.278 16.287C178.081 16.287 177.035 16.6134 176.141 17.2662C175.258 17.9069 174.569 18.8437 174.074 20.0768C173.578 21.3098 173.33 22.8027 173.33 24.5556C173.33 26.3326 173.572 27.8436 174.055 29.0887C174.551 30.3339 175.246 31.2828 176.141 31.9356C177.035 32.5884 178.081 32.9148 179.278 32.9148C180.16 32.9148 180.952 32.7334 181.653 32.3708C182.366 32.0081 182.953 31.4823 183.412 30.7932C183.883 30.0921 184.192 29.2519 184.337 28.2728H191.626C191.505 30.4003 190.925 32.2741 189.885 33.8939C188.858 35.5017 187.437 36.7589 185.624 37.6655C183.811 38.5722 181.665 39.0255 179.187 39.0255Z" fill="black"/>
<path d="M214.433 26.6227V10.6296H222.157V38.4815H214.741V33.4225H214.451C213.822 35.0544 212.776 36.366 211.314 37.3573C209.863 38.3485 208.092 38.8442 206.001 38.8442C204.139 38.8442 202.501 38.4211 201.087 37.5749C199.672 36.7287 198.566 35.5259 197.769 33.9665C196.983 32.407 196.584 30.5394 196.572 28.3634V10.6296H204.296V26.9853C204.308 28.6294 204.75 29.9289 205.62 30.8839C206.49 31.8389 207.657 32.3164 209.12 32.3164C210.05 32.3164 210.921 32.1048 211.731 31.6817C212.541 31.2465 213.193 30.6058 213.689 29.7597C214.197 28.9135 214.445 27.8678 214.433 26.6227Z" fill="black"/>
<path d="M228.336 38.4815V10.6296H235.825V15.4892H236.115C236.623 13.7605 237.475 12.4549 238.672 11.5725C239.868 10.6779 241.246 10.2307 242.806 10.2307C243.193 10.2307 243.61 10.2548 244.057 10.3032C244.504 10.3516 244.897 10.418 245.236 10.5027V17.3568C244.873 17.248 244.371 17.1513 243.731 17.0667C243.09 16.9821 242.504 16.9398 241.972 16.9398C240.835 16.9398 239.82 17.1876 238.925 17.6832C238.043 18.1668 237.342 18.8437 236.822 19.7141C236.314 20.5845 236.06 21.5878 236.06 22.7241V38.4815H228.336Z" fill="black"/>
<path d="M260.517 39.0255C257.7 39.0255 255.265 38.4271 253.209 37.2304C251.167 36.0215 249.589 34.3412 248.477 32.1894C247.365 30.0256 246.809 27.5172 246.809 24.6643C246.809 21.7873 247.365 19.2729 248.477 17.1211C249.589 14.9573 251.167 13.277 253.209 12.0802C255.265 10.8714 257.7 10.2669 260.517 10.2669C263.334 10.2669 265.763 10.8714 267.806 12.0802C269.861 13.277 271.445 14.9573 272.557 17.1211C273.669 19.2729 274.225 21.7873 274.225 24.6643C274.225 27.5172 273.669 30.0256 272.557 32.1894C271.445 34.3412 269.861 36.0215 267.806 37.2304C265.763 38.4271 263.334 39.0255 260.517 39.0255ZM260.553 33.0417C261.835 33.0417 262.904 32.679 263.763 31.9537C264.621 31.2163 265.268 30.213 265.703 28.9437C266.15 27.6744 266.374 26.2298 266.374 24.6099C266.374 22.9901 266.15 21.5455 265.703 20.2762C265.268 19.0069 264.621 18.0036 263.763 17.2662C262.904 16.5288 261.835 16.1601 260.553 16.1601C259.26 16.1601 258.172 16.5288 257.289 17.2662C256.419 18.0036 255.76 19.0069 255.313 20.2762C254.878 21.5455 254.66 22.9901 254.66 24.6099C254.66 26.2298 254.878 27.6744 255.313 28.9437C255.76 30.213 256.419 31.2163 257.289 31.9537C258.172 32.679 259.26 33.0417 260.553 33.0417Z" fill="black"/>
<path d="M102.771 79.9693V42.8334H127.359V49.3068H110.622V58.1556H125.727V64.629H110.622V79.9693H102.771Z" fill="black"/>
<path d="M132.495 79.9693V52.1174H140.22V79.9693H132.495ZM136.376 48.5271C135.227 48.5271 134.242 48.1463 133.42 47.3847C132.61 46.611 132.205 45.6863 132.205 44.6104C132.205 43.5466 132.61 42.6339 133.42 41.8723C134.242 41.0987 135.227 40.7118 136.376 40.7118C137.524 40.7118 138.503 41.0987 139.313 41.8723C140.135 42.6339 140.546 43.5466 140.546 44.6104C140.546 45.6863 140.135 46.611 139.313 47.3847C138.503 48.1463 137.524 48.5271 136.376 48.5271Z" fill="black"/>
<path d="M154.132 63.8674V79.9693H146.407V52.1174H153.769V57.0313H154.096C154.712 55.4115 155.746 54.1301 157.196 53.1872C158.647 52.2322 160.406 51.7547 162.473 51.7547C164.407 51.7547 166.094 52.1778 167.532 53.024C168.971 53.8702 170.089 55.079 170.887 56.6505C171.685 58.21 172.083 60.0716 172.083 62.2354V79.9693H164.359V63.6135C164.371 61.909 163.936 60.5793 163.053 59.6243C162.171 58.6572 160.956 58.1737 159.409 58.1737C158.369 58.1737 157.45 58.3973 156.652 58.8446C155.867 59.2919 155.25 59.9447 154.803 60.803C154.368 61.6491 154.144 62.6706 154.132 63.8674Z" fill="black"/>
<path d="M186.114 80.4951C184.337 80.4951 182.753 80.1869 181.363 79.5704C179.973 78.9418 178.873 78.017 178.063 76.7961C177.265 75.563 176.866 74.0278 176.866 72.1903C176.866 70.643 177.15 69.3435 177.718 68.2918C178.286 67.2401 179.06 66.3939 180.039 65.7532C181.018 65.1125 182.131 64.629 183.376 64.3026C184.633 63.9762 185.951 63.7465 187.329 63.6135C188.948 63.4443 190.254 63.2871 191.245 63.1421C192.237 62.9849 192.956 62.7552 193.403 62.453C193.85 62.1508 194.074 61.7035 194.074 61.1112V61.0024C194.074 59.854 193.711 58.9655 192.986 58.3369C192.273 57.7083 191.257 57.394 189.94 57.394C188.55 57.394 187.443 57.7022 186.621 58.3188C185.799 58.9232 185.255 59.6848 184.989 60.6035L177.845 60.0232C178.208 58.3309 178.921 56.8681 179.985 55.6351C181.049 54.39 182.421 53.435 184.101 52.7701C185.793 52.0932 187.752 51.7547 189.976 51.7547C191.523 51.7547 193.004 51.936 194.419 52.2987C195.845 52.6613 197.108 53.2234 198.208 53.985C199.32 54.7466 200.197 55.7258 200.838 56.9225C201.478 58.1072 201.799 59.5276 201.799 61.1837V79.9693H194.473V76.107H194.255C193.808 76.9774 193.21 77.745 192.46 78.4099C191.711 79.0626 190.81 79.5764 189.758 79.9511C188.707 80.3138 187.492 80.4951 186.114 80.4951ZM188.326 75.1641C189.462 75.1641 190.466 74.9405 191.336 74.4932C192.206 74.0338 192.889 73.4173 193.385 72.6436C193.881 71.87 194.128 70.9936 194.128 70.0144V67.0587C193.887 67.2159 193.554 67.361 193.131 67.4939C192.72 67.6148 192.255 67.7297 191.735 67.8385C191.215 67.9352 190.695 68.0258 190.175 68.1105C189.656 68.183 189.184 68.2495 188.761 68.3099C187.854 68.4429 187.063 68.6544 186.386 68.9446C185.709 69.2347 185.183 69.6276 184.808 70.1232C184.433 70.6067 184.246 71.2112 184.246 71.9365C184.246 72.9882 184.627 73.7921 185.388 74.3481C186.162 74.8921 187.141 75.1641 188.326 75.1641Z" fill="black"/>
<path d="M215.516 63.8674V79.9693H207.791V52.1174H215.153V57.0313H215.48C216.096 55.4115 217.13 54.1301 218.58 53.1872C220.031 52.2322 221.79 51.7547 223.857 51.7547C225.791 51.7547 227.478 52.1778 228.916 53.024C230.355 53.8702 231.473 55.079 232.271 56.6505C233.069 58.21 233.467 60.0716 233.467 62.2354V79.9693H225.743V63.6135C225.755 61.909 225.32 60.5793 224.437 59.6243C223.555 58.6572 222.34 58.1737 220.793 58.1737C219.753 58.1737 218.834 58.3973 218.036 58.8446C217.251 59.2919 216.634 59.9447 216.187 60.803C215.752 61.6491 215.528 62.6706 215.516 63.8674Z" fill="black"/>
<path d="M252.14 80.5133C249.287 80.5133 246.833 79.9088 244.778 78.7C242.735 77.479 241.163 75.7867 240.063 73.6228C238.975 71.459 238.431 68.9687 238.431 66.1521C238.431 63.2992 238.981 60.7969 240.081 58.6451C241.194 56.4813 242.771 54.795 244.814 53.5861C246.857 52.3652 249.287 51.7547 252.103 51.7547C254.533 51.7547 256.661 52.1959 258.486 53.0784C260.311 53.9609 261.756 55.1999 262.82 56.7956C263.884 58.3913 264.47 60.265 264.579 62.4168H257.289C257.084 61.0266 256.54 59.9084 255.657 59.0622C254.787 58.2039 253.645 57.7748 252.23 57.7748C251.034 57.7748 249.988 58.1012 249.093 58.7539C248.211 59.3946 247.522 60.3315 247.026 61.5645C246.531 62.7976 246.283 64.2905 246.283 66.0433C246.283 67.8203 246.525 69.3314 247.008 70.5765C247.504 71.8216 248.199 72.7706 249.093 73.4234C249.988 74.0761 251.034 74.4025 252.23 74.4025C253.113 74.4025 253.905 74.2212 254.606 73.8585C255.319 73.4959 255.905 72.97 256.365 72.281C256.836 71.5799 257.144 70.7397 257.289 69.7605H264.579C264.458 71.8881 263.878 73.7618 262.838 75.3817C261.81 76.9895 260.39 78.2467 258.577 79.1533C256.764 80.06 254.618 80.5133 252.14 80.5133Z" fill="black"/>
<path d="M282.217 80.5133C279.352 80.5133 276.886 79.933 274.819 78.7725C272.764 77.5999 271.181 75.9438 270.068 73.8041C268.956 71.6524 268.4 69.1078 268.4 66.1702C268.4 63.3053 268.956 60.7909 270.068 58.627C271.181 56.4632 272.746 54.7768 274.765 53.568C276.796 52.3591 279.177 51.7547 281.909 51.7547C283.747 51.7547 285.457 52.0509 287.041 52.6432C288.636 53.2235 290.027 54.0999 291.211 55.2725C292.408 56.445 293.339 57.9198 294.004 59.6968C294.669 61.4618 295.001 63.5289 295.001 65.8983V68.0198H271.483V63.2327H287.73C287.73 62.1206 287.488 61.1354 287.004 60.2771C286.521 59.4188 285.85 58.7479 284.992 58.2644C284.145 57.7687 283.16 57.5209 282.036 57.5209C280.863 57.5209 279.824 57.7929 278.917 58.3369C278.023 58.8688 277.322 59.588 276.814 60.4947C276.306 61.3892 276.046 62.3865 276.034 63.4866V68.0379C276.034 69.416 276.288 70.6067 276.796 71.6101C277.315 72.6134 278.047 73.3871 278.99 73.9311C279.933 74.4751 281.051 74.747 282.344 74.747C283.203 74.747 283.988 74.6262 284.702 74.3844C285.415 74.1426 286.025 73.78 286.533 73.2964C287.041 72.8129 287.428 72.2206 287.693 71.5194L294.838 71.9909C294.475 73.7074 293.732 75.2064 292.607 76.4878C291.495 77.7571 290.057 78.7483 288.292 79.4616C286.539 80.1627 284.514 80.5133 282.217 80.5133Z" fill="black"/>
</svg>
