<svg width="119" height="20" viewBox="0 0 119 20" fill="none" xmlns="http://www.w3.org/2000/svg">
<g clip-path="url(#clip0_2656_6316)">
<path d="M18.4958 7.55446L12.6549 6.66225L10.0369 1.08575C9.84133 0.669333 9.15812 0.669333 8.96258 1.08575L6.34533 6.66225L0.50441 7.55446C0.0246598 7.62808 -0.166924 8.21154 0.169535 8.55592L4.41287 12.9053L3.40983 19.0542C3.32987 19.5427 3.85158 19.9092 4.28304 19.6693L9.50012 16.7861L14.7172 19.6701C15.1447 19.9076 15.6712 19.5482 15.5904 19.055L14.5874 12.9061L18.8307 8.55671C19.1672 8.21154 18.9748 7.62808 18.4958 7.55446V7.55446Z" fill="#FFC107"/>
</g>
<g clip-path="url(#clip1_2656_6316)">
<path d="M43.4958 7.55446L37.6549 6.66225L35.0369 1.08575C34.8413 0.669333 34.1581 0.669333 33.9626 1.08575L31.3453 6.66225L25.5044 7.55446C25.0247 7.62808 24.8331 8.21154 25.1695 8.55592L29.4129 12.9053L28.4098 19.0542C28.3299 19.5427 28.8516 19.9092 29.283 19.6693L34.5001 16.7861L39.7172 19.6701C40.1447 19.9076 40.6712 19.5482 40.5904 19.055L39.5874 12.9061L43.8307 8.55671C44.1672 8.21154 43.9748 7.62808 43.4958 7.55446V7.55446Z" fill="#FFC107"/>
</g>
<g clip-path="url(#clip2_2656_6316)">
<path d="M68.4958 7.55446L62.6549 6.66225L60.0369 1.08575C59.8413 0.669333 59.1581 0.669333 58.9626 1.08575L56.3453 6.66225L50.5044 7.55446C50.0247 7.62808 49.8331 8.21154 50.1695 8.55592L54.4129 12.9053L53.4098 19.0542C53.3299 19.5427 53.8516 19.9092 54.283 19.6693L59.5001 16.7861L64.7172 19.6701C65.1447 19.9076 65.6712 19.5482 65.5904 19.055L64.5874 12.9061L68.8307 8.55671C69.1672 8.21154 68.9748 7.62808 68.4958 7.55446V7.55446Z" fill="#FFC107"/>
</g>
<g clip-path="url(#clip3_2656_6316)">
<path d="M93.4958 7.55446L87.6549 6.66225L85.0369 1.08575C84.8413 0.669333 84.1581 0.669333 83.9626 1.08575L81.3453 6.66225L75.5044 7.55446C75.0247 7.62808 74.8331 8.21154 75.1695 8.55592L79.4129 12.9053L78.4098 19.0542C78.3299 19.5427 78.8516 19.9092 79.283 19.6693L84.5001 16.7861L89.7172 19.6701C90.1447 19.9076 90.6712 19.5482 90.5904 19.055L89.5874 12.9061L93.8307 8.55671C94.1672 8.21154 93.9748 7.62808 93.4958 7.55446V7.55446Z" fill="#FFC107"/>
</g>
<g clip-path="url(#clip4_2656_6316)">
<path d="M118.496 7.55446L112.655 6.66225L110.037 1.08575C109.841 0.669333 109.158 0.669333 108.963 1.08575L106.345 6.66225L100.504 7.55446C100.025 7.62808 99.8331 8.21154 100.17 8.55592L104.413 12.9053L103.41 19.0542C103.33 19.5427 103.852 19.9092 104.283 19.6693L109.5 16.7861L114.717 19.6701C115.145 19.9076 115.671 19.5482 115.59 19.055L114.587 12.9061L118.831 8.55671C119.167 8.21154 118.975 7.62808 118.496 7.55446V7.55446Z" fill="#FFC107"/>
</g>
<defs>
<clipPath id="clip0_2656_6316">
<rect width="19" height="19" fill="white" transform="translate(0 0.757812)"/>
</clipPath>
<clipPath id="clip1_2656_6316">
<rect width="19" height="19" fill="white" transform="translate(25 0.757812)"/>
</clipPath>
<clipPath id="clip2_2656_6316">
<rect width="19" height="19" fill="white" transform="translate(50 0.757812)"/>
</clipPath>
<clipPath id="clip3_2656_6316">
<rect width="19" height="19" fill="white" transform="translate(75 0.757812)"/>
</clipPath>
<clipPath id="clip4_2656_6316">
<rect width="19" height="19" fill="white" transform="translate(100 0.757812)"/>
</clipPath>
</defs>
</svg>
